<svg xmlns="http://www.w3.org/2000/svg" viewBox="0 0 1000 862" width="1000" height="862">
<rect width="1000" height="862" fill="#0d0c16"/>
<g fill="none" stroke-width="6" stroke-linecap="round" stroke-linejoin="round" opacity="0.95">
<polyline points="381.9,532.6 383.4,531.4 381.9,532.6" stroke="#006400"/>
<polyline points="380.3,534.0 383.4,531.2" stroke="#006400"/>
<polyline points="309.7,569.1 311.0,565.0 312.5,563.2 314.1,562.8 317.7,561.9 319.9,561.3 321.3,561.5 323.0,562.7 326.1,565.1 327.6,565.9 329.6,566.3 333.7,565.1 336.4,564.0 337.8,563.6 339.9,563.5 341.5,563.4 343.2,562.6 344.4,561.3 348.8,556.7 362.4,542.7 363.8,541.3 365.3,539.8 366.7,538.9 368.2,538.2 370.8,537.5 372.2,537.2 374.1,536.9 375.5,536.7 377.7,535.5 380.3,534.0" stroke="#006400"/>
<polyline points="253.0,608.7 258.7,611.9 260.6,612.8 263.5,613.8 265.2,614.0 267.9,613.9 272.9,613.5 275.9,613.0 279.8,611.9 290.1,608.4 291.8,607.7 293.2,606.7 294.1,605.3 295.2,600.4 296.0,597.9 297.8,594.4 299.7,589.8 300.8,587.9 302.4,585.8 304.4,583.2 305.5,581.5 306.2,579.8 306.7,578.3 306.9,576.0 307.0,574.1 307.3,572.6 309.7,569.1" stroke="#006400"/>
<polyline points="396.1,353.8 398.9,352.8 396.7,353.6 396.1,353.8" stroke="#939393"/>
<polyline points="434.4,353.6 437.8,353.9 434.4,353.6" stroke="#939393"/>
<polyline points="471.2,377.2 473.1,379.3 473.2,379.4" stroke="#939393"/>
<polyline points="471.0,377.4 473.0,379.5" stroke="#939393"/>
<polyline points="482.9,391.1 484.5,393.6" stroke="#939393"/>
<polyline points="489.8,466.7 490.0,464.4 489.7,466.6 489.8,466.7" stroke="#939393"/>
<polyline points="480.2,483.5 482.0,480.7 480.2,483.5" stroke="#939393"/>
<polyline points="480.0,483.3 481.8,480.5 480.0,483.3" stroke="#939393"/>
<polyline points="470.4,499.9 468.3,500.5 470.4,499.9 470.4,499.9" stroke="#939393"/>
<polyline points="387.6,530.7 390.6,530.8 387.6,530.7" stroke="#939393"/>
<polyline points="379.3,428.8 378.6,430.1 377.6,438.3 377.2,440.3 376.4,442.3 375.4,443.9 374.1,445.1 371.9,446.4 370.3,446.8 368.7,447.1 364.8,447.7 361.9,448.2 360.0,448.7 340.0,458.5 334.4,461.3 328.2,463.5 326.4,464.3 325.1,465.7 324.6,467.5 324.5,469.7 324.1,472.9 323.7,475.3 323.7,477.1 323.8,478.8 325.1,486.7 325.6,489.8" stroke="#939393"/>
<polyline points="384.4,424.4 381.7,426.8 379.3,428.8" stroke="#939393"/>
<polyline points="389.3,401.8 394.0,411.8 394.8,414.2 395.0,416.7 394.4,418.8 393.3,420.3 391.8,421.1 388.9,421.7 387.0,422.3 385.6,423.2 384.4,424.4" stroke="#939393"/>
<polyline points="385.0,393.7 385.7,395.2 388.0,399.3 389.3,401.8" stroke="#939393"/>
<polyline points="388.7,354.1 387.0,353.2 385.0,353.1 381.5,353.6 377.2,354.2 372.0,354.9 370.1,355.5 368.8,356.5 367.8,357.8 366.6,360.7 365.5,363.3 365.3,365.3 365.5,366.8 366.0,369.5 366.7,371.3 367.6,373.0 370.3,376.1 372.0,378.9 373.4,380.3 378.6,384.0 380.0,385.2 380.9,386.4 383.3,390.8 385.0,393.7" stroke="#939393"/>
<polyline points="403.0,351.6 401.5,351.9 400.1,352.3 397.5,353.4 394.5,354.6 392.9,355.1 391.3,355.1 389.7,354.6 388.7,354.1" stroke="#939393"/>
<polyline points="434.4,353.7 428.2,353.2 415.2,352.2 404.4,351.5 403.0,351.6" stroke="#939393"/>
<polyline points="445.5,354.6 443.5,354.5 441.6,354.4 440.0,354.3 437.6,354.0 436.1,353.8 434.4,353.7" stroke="#939393"/>
<polyline points="467.1,372.4 462.2,365.0 458.0,359.8 456.0,357.1 455.0,356.1 453.7,354.9 452.3,354.4 450.6,354.4 448.8,354.7 445.5,354.6" stroke="#939393"/>
<polyline points="474.4,381.0 473.4,379.8 472.3,378.6 471.1,377.3 469.8,375.9 468.6,374.6 467.7,373.4 467.1,372.4" stroke="#939393"/>
<polyline points="382.2,529.0 383.9,529.9 385.5,530.4 386.9,530.6 389.2,530.7 390.7,530.7 392.3,530.7 397.7,530.9 399.3,530.4 411.6,522.4 417.4,518.3 421.8,516.6 427.8,515.4 433.0,513.9 434.8,513.3 437.2,512.6 444.4,509.5 448.4,507.8 450.3,507.1 452.4,506.3 457.1,504.4 462.5,502.5 467.6,500.6 469.2,500.2 470.6,499.7 472.3,498.8 473.6,497.5 474.2,495.6 474.6,492.6 475.1,490.7 476.2,488.8 479.6,483.9 482.1,480.5 485.2,475.7 488.1,471.5 489.0,469.8 489.5,468.3 489.7,466.7 489.9,463.6 490.0,461.8 490.1,458.8 491.0,446.5 491.2,444.9 491.4,442.0 491.4,440.5 492.4,423.7 493.2,411.2 493.5,409.0 493.4,406.9 493.4,405.1 492.9,403.2 492.3,401.9 490.7,400.5 489.2,399.8 487.7,398.8 486.2,396.5 484.6,393.9 483.7,392.5 482.9,391.1 481.7,389.5 480.4,387.8 478.2,385.1 477.1,383.8 474.4,381.0" stroke="#939393"/>
<polyline points="333.7,508.3 354.0,520.6 355.9,521.5 372.9,525.6 379.4,527.7 381.1,528.5 382.2,529.0" stroke="#939393"/>
<polyline points="325.6,489.8 326.4,493.6 328.0,502.1 332.7,507.2 333.7,508.3" stroke="#939393"/>
<polyline points="419.1,474.5 419.1,472.9 419.1,474.5" stroke="#FFDF00"/>
<polyline points="436.3,478.9 434.6,478.6 436.3,478.9" stroke="#FFDF00"/>
<polyline points="436.9,490.9 437.1,489.3 436.9,490.9" stroke="#FFDF00"/>
<polyline points="381.0,383.2 381.0,385.4 381.7,386.9 381.8,387.1" stroke="#FFDF00"/>
<polyline points="381.8,387.1 383.7,390.6 387.4,397.8 394.8,410.4 397.4,415.9 398.0,417.6 398.0,417.7" stroke="#FFDF00"/>
<polyline points="398.0,417.7 398.8,419.4 400.3,420.7 404.4,423.2 405.8,424.2 408.0,426.2 409.0,427.2 410.4,428.8 411.2,430.4 412.6,433.4 415.0,438.2 415.9,439.8 418.3,457.8 418.8,459.4 419.6,460.8 420.7,461.9 421.9,463.1 422.6,464.4 422.5,466.0 420.4,469.4 419.5,470.9 419.2,471.7" stroke="#FFDF00"/>
<polyline points="419.2,471.7 418.9,473.2 419.1,474.7" stroke="#FFDF00"/>
<polyline points="419.1,474.7 420.0,476.5 420.9,477.7 422.1,478.6 423.7,479.2 425.1,479.2 426.6,478.9 428.1,478.4 429.8,478.2 431.5,478.2 435.8,478.9 437.3,479.2 438.4,480.2 438.7,481.6 437.9,483.3 437.4,484.8 436.9,490.1 436.7,492.0 436.4,493.5 435.7,502.2 435.4,505.0 435.5,506.8 435.2,509.3 435.0,511.0 434.4,512.6 429.4,517.6 428.2,519.1 427.4,520.7 426.8,522.1 426.4,523.6 426.2,525.3 427.4,530.6 428.3,533.6 428.7,535.2 433.0,558.7 436.4,574.5 437.3,586.2 438.6,602.8 439.0,611.1 438.9,614.4 439.8,619.7 439.9,621.1 439.9,629.4 439.8,637.9 440.2,640.1 440.8,641.4 441.3,643.8 441.6,648.7 441.4,650.1 441.1,651.5 440.1,653.6 437.8,656.8 436.4,658.6 435.2,660.3 433.1,661.6 419.4,662.2 408.9,662.5 403.5,658.8 398.0,658.3" stroke="#FFDF00"/>
<polyline points="398.0,658.3 390.9,657.6 388.4,657.7 386.7,658.1 384.8,659.3 383.4,660.6 382.5,662.1 381.1,665.3 379.3,669.6 378.2,672.7" stroke="#FFDF00"/>
<polyline points="378.2,672.7 376.3,680.1 376.2,682.2 376.8,684.0 377.9,685.9 389.6,694.1 392.0,696.0 393.2,697.6 394.3,699.6 395.1,701.9 395.5,703.8 395.9,705.5 396.5,706.9 397.4,708.2 401.4,713.2 403.0,715.9 403.3,717.4 403.6,719.3 403.9,722.7" stroke="#FFDF00"/>
<polyline points="618.8,25.7 617.4,27.6 615.6,30.2 613.9,32.7 607.1,42.2 605.5,44.6 604.1,46.4 600.6,49.5 599.0,50.8 597.3,51.9 595.9,52.2 594.5,52.4 592.8,52.1 591.1,51.6 585.6,50.3 581.5,49.4 578.7,47.7 576.9,46.4 574.1,44.4 572.5,43.1 570.8,42.1 569.1,41.2 567.5,41.0 565.7,41.2 559.8,43.1 558.4,43.4 554.1,45.1 545.8,49.5 540.8,53.6 538.6,58.3 539.9,61.4 541.3,62.8 552.7,74.0 560.4,81.6 560.8,83.1 565.5,99.9 565.9,107.4 559.6,109.6 553.4,111.7 530.9,114.0 522.2,114.8 518.1,116.5 516.4,118.0 515.4,119.5 507.0,155.0 498.8,165.4 495.0,170.7 494.0,171.8 492.7,172.8 491.3,173.7 489.6,174.6 487.7,175.3 484.1,176.0 480.5,176.5 451.8,177.7 448.6,177.6 445.5,177.4 443.2,176.9 436.9,175.2 434.4,175.0 432.0,175.7 430.6,177.2 430.2,179.1 430.8,181.4 432.4,182.9 434.9,184.6 436.0,186.0 436.7,188.5 436.6,190.1 436.0,192.1 435.9,193.0" stroke="#015396"/>
<polyline points="435.9,193.0 435.8,194.3" stroke="#015396"/>
<polyline points="435.8,194.3 435.3,197.0 435.0,198.8" stroke="#015396"/>
<polyline points="402.7,435.0 404.0,435.9" stroke="#fb0f0c"/>
<polyline points="417.8,438.3 416.3,438.2 416.1,438.2" stroke="#fb0f0c"/>
<polyline points="465.6,423.0 467.6,421.9" stroke="#fb0f0c"/>
<polyline points="475.2,417.3 476.5,416.6" stroke="#fb0f0c"/>
<polyline points="534.5,409.6 536.0,409.5 534.5,409.6" stroke="#fb0f0c"/>
<polyline points="560.9,420.7 558.5,420.6 560.2,420.6 560.9,420.7" stroke="#fb0f0c"/>
<polyline points="590.5,435.3 592.6,434.5 590.5,435.3" stroke="#fb0f0c"/>
<polyline points="616.0,423.2 618.2,422.3 616.0,423.2" stroke="#fb0f0c"/>
<polyline points="636.9,418.9 638.9,420.1 637.7,419.3 636.9,418.9" stroke="#fb0f0c"/>
<polyline points="402.4,434.7 401.8,433.4 402.3,431.9 404.0,430.3 405.1,429.1 406.1,426.9 406.6,425.4 407.4,421.9 407.7,419.1 407.7,417.6 407.7,415.0 407.9,413.6 409.3,410.7 410.2,408.2 411.0,404.2 411.4,402.0 412.0,400.1 413.2,395.9 414.0,392.5 414.6,390.3 414.8,388.8 414.6,387.3 414.8,378.9 414.6,376.1 414.6,374.5 415.1,357.2 415.2,355.3" stroke="#fb0f0c"/>
<polyline points="404.7,436.2 403.3,435.5 402.4,434.7" stroke="#fb0f0c"/>
<polyline points="415.7,438.3 414.1,438.9 412.4,438.7 409.7,438.0 408.1,437.4 406.4,436.7 404.7,436.2" stroke="#fb0f0c"/>
<polyline points="418.3,438.4 416.8,438.3 415.7,438.3" stroke="#fb0f0c"/>
<polyline points="418.8,438.3 418.3,438.4" stroke="#fb0f0c"/>
<polyline points="439.3,431.3 436.5,432.2 435.1,432.6 431.6,433.4 429.4,434.1 427.7,434.8 424.1,436.3 421.4,437.5 419.2,438.3 418.8,438.3" stroke="#fb0f0c"/>
<polyline points="441.3,431.1 439.9,431.2 439.3,431.3" stroke="#fb0f0c"/>
<polyline points="445.9,430.2 443.3,430.7 441.3,431.1" stroke="#fb0f0c"/>
<polyline points="458.1,427.5 453.8,428.5 448.5,430.0 445.9,430.2" stroke="#fb0f0c"/>
<polyline points="464.3,423.9 461.9,425.3 460.5,426.1 458.7,427.2 458.1,427.5" stroke="#fb0f0c"/>
<polyline points="468.5,421.4 466.6,422.6 464.3,423.9" stroke="#fb0f0c"/>
<polyline points="468.5,421.4 475.8,417.1 477.1,416.4 481.7,413.7 487.5,410.0 490.2,408.2 492.8,406.3 494.0,405.5 498.0,402.9 502.3,400.2 504.0,399.1 505.4,398.3 506.9,398.1 509.5,398.4 510.6,398.6" stroke="#fb0f0c"/>
<polyline points="637.8,419.6 636.5,418.9 635.2,418.2 633.5,417.5 632.1,417.1 630.5,417.0 628.6,417.4 617.3,422.7 615.6,423.6 608.4,427.0 592.9,434.4 589.7,435.8 587.7,436.4 585.9,436.3 584.5,435.8 583.2,435.1 571.6,427.0 570.2,425.9 568.5,424.3 567.5,423.2 565.8,421.9 564.3,421.3 562.7,421.0 559.9,420.7 557.3,420.5 555.6,420.1 554.1,419.6 552.7,418.7 551.7,417.7 548.4,413.7 547.0,412.3 543.2,409.8 541.6,409.2 539.8,409.0 538.0,409.2 535.2,409.6 533.2,410.0 531.5,410.1 529.8,409.9 528.1,409.3 526.8,408.4 524.7,406.3 521.4,402.8 520.2,401.5 519.0,400.4 517.6,399.5 516.1,399.0 513.9,398.8 511.9,398.8 510.6,398.6" stroke="#fb0f0c"/>
<polyline points="280.9,515.9 279.6,514.1 279.4,513.8" stroke="#96bf0d"/>
<polyline points="409.7,476.2 411.9,475.4 409.7,476.3 409.7,476.2" stroke="#96bf0d"/>
<polyline points="402.7,434.6 403.1,436.9" stroke="#96bf0d"/>
<polyline points="421.3,429.8 419.0,429.8 420.6,429.8 421.3,429.8" stroke="#96bf0d"/>
<polyline points="563.6,377.0 561.4,377.8" stroke="#96bf0d"/>
<polyline points="586.5,368.8 584.3,369.6" stroke="#96bf0d"/>
<polyline points="289.0,478.4 289.9,477.5" stroke="#96bf0d"/>
<polyline points="279.8,514.5 277.0,510.7 274.8,506.0 273.7,503.1 273.1,501.0 273.1,499.5 273.4,497.7 273.8,496.0 275.5,492.8 276.1,491.2 277.2,489.8 282.9,484.2 289.0,478.4" stroke="#96bf0d"/>
<polyline points="287.9,525.7 281.6,516.9 279.8,514.5" stroke="#96bf0d"/>
<polyline points="287.9,525.7 288.9,526.9 289.3,527.5" stroke="#96bf0d"/>
<polyline points="289.3,527.5 290.4,529.0 291.6,530.6 291.9,531.2" stroke="#96bf0d"/>
<polyline points="310.5,533.5 309.0,534.4 307.5,535.0 306.1,535.2 304.2,535.2 296.2,534.0 294.7,533.7 293.3,533.1 292.3,532.0 291.9,531.2" stroke="#96bf0d"/>
<polyline points="406.6,477.5 401.0,479.4 399.7,480.1 397.5,481.8 396.3,482.8 395.3,484.3 392.7,490.9 391.3,492.5 387.1,495.5 379.0,501.6 376.8,503.1 372.5,506.2 370.3,507.8 368.1,509.3 354.1,520.5 352.7,520.3 335.8,520.1 324.9,522.9 316.0,529.4 311.5,532.8 310.5,533.5" stroke="#96bf0d"/>
<polyline points="414.4,473.5 413.5,474.8 410.9,475.9 409.5,476.4 406.6,477.5" stroke="#96bf0d"/>
<polyline points="400.1,468.4 401.4,469.4 404.8,470.3 406.5,470.6 408.0,470.5 409.5,470.2 411.1,469.8 412.7,469.9 413.9,470.8 414.5,472.2 414.4,473.5" stroke="#96bf0d"/>
<polyline points="400.1,463.5 399.3,465.2 399.3,466.8 400.1,468.4" stroke="#96bf0d"/>
<polyline points="417.9,429.8 413.5,429.1 411.2,429.3 408.2,429.3 406.5,429.5 405.1,430.1 403.7,431.3 402.9,433.0 402.8,434.6 403.0,436.0 403.3,437.8 404.0,439.8 405.0,441.2 406.1,442.5 407.0,444.1 407.4,446.7 407.6,449.2 407.3,450.8 406.2,453.7 404.7,456.3 400.1,463.5" stroke="#96bf0d"/>
<polyline points="422.4,429.9 420.4,429.9 419.0,429.8 417.9,429.8" stroke="#96bf0d"/>
<polyline points="451.1,392.2 449.2,392.2 446.6,392.3 444.9,392.3 443.3,392.9 442.2,394.5 441.5,396.0 440.8,397.8 440.0,399.4 439.0,400.8 433.0,408.1 432.0,409.6 431.3,410.9 430.8,413.3 430.4,418.3 430.0,420.0 429.1,422.0 428.6,423.4 428.0,424.9 425.7,428.0 424.3,429.2 422.8,429.9 422.4,429.9" stroke="#96bf0d"/>
<polyline points="471.3,393.5 469.0,393.3 451.1,392.2" stroke="#96bf0d"/>
<polyline points="475.2,393.8 471.3,393.5" stroke="#96bf0d"/>
<polyline points="488.2,395.6 486.7,395.6 485.1,394.9 483.6,394.3 480.7,394.1 475.2,393.8" stroke="#96bf0d"/>
<polyline points="670.5,321.2 660.8,329.8 659.4,330.9 657.9,332.1 656.0,333.5 654.2,334.3 651.9,334.8 649.8,335.0 644.3,334.8 641.6,335.1 640.1,335.6 638.6,336.2 636.2,337.3 633.9,338.7 631.8,340.2 625.8,345.2 624.5,346.2 615.8,353.7 607.7,360.7 606.4,361.6 584.6,369.5 561.0,378.0 559.2,378.8 548.5,385.4 546.4,386.7 538.1,392.0 533.2,393.0 530.1,393.6 526.8,394.2 520.4,395.2 517.0,396.0 511.1,396.9 508.5,397.3 507.1,397.6 505.2,397.4 503.7,396.7 501.3,395.5 499.7,394.7 498.2,394.3 496.2,394.5 488.2,395.6" stroke="#96bf0d"/>
<polyline points="402.8,436.2 401.3,436.0" stroke="#e6194b"/>
<polyline points="401.1,436.0 402.8,436.2" stroke="#e6194b"/>
<polyline points="380.8,428.6 382.5,429.1 385.5,429.1 387.4,429.0 389.1,429.1 390.9,429.9 392.2,430.8 395.0,432.7 397.1,434.1 398.3,434.9 399.9,435.8 401.1,436.0" stroke="#e6194b"/>
<polyline points="379.5,428.1 380.8,428.6" stroke="#e6194b"/>
<polyline points="446.0,296.6 447.3,294.8" stroke="#67C0DD"/>
<polyline points="436.1,300.8 434.4,301.7 436.1,300.8" stroke="#67C0DD"/>
<polyline points="418.1,329.1 417.9,331.5 418.1,329.1" stroke="#67C0DD"/>
<polyline points="420.5,429.5 420.0,431.3 420.5,429.5" stroke="#67C0DD"/>
<polyline points="441.9,461.4 443.4,462.4 441.8,461.5 441.9,461.4" stroke="#67C0DD"/>
<polyline points="448.1,466.6 449.8,468.2 448.5,466.8 448.1,466.6" stroke="#67C0DD"/>
<polyline points="476.1,481.7 478.6,483.4 476.1,481.8 476.1,481.7" stroke="#67C0DD"/>
<polyline points="496.4,256.4 494.7,255.2 492.9,254.4 486.5,252.3 485.0,252.0 482.6,252.2 480.3,253.3 479.2,254.2 477.8,256.2 475.5,265.2 474.4,268.0 472.9,270.2 470.7,272.0 468.4,273.2 465.6,274.0 463.4,274.2 457.3,272.5 455.1,272.3 453.1,272.6 451.0,273.6 449.8,275.8 449.5,277.3 449.4,278.8 449.2,285.2 448.8,288.0 448.2,290.7 447.5,294.1 446.6,295.6 445.7,296.8 444.5,298.0 442.8,298.7 440.6,298.9 438.7,299.5 437.5,300.1" stroke="#67C0DD"/>
<polyline points="437.5,300.1 436.1,300.7 434.6,301.4 433.3,302.2 433.0,302.5" stroke="#67C0DD"/>
<polyline points="433.0,302.5 430.7,305.7 429.0,308.5 427.9,311.8 425.8,314.8 423.5,317.6 420.2,322.7 418.5,327.1" stroke="#67C0DD"/>
<polyline points="418.5,327.1 417.9,330.2 416.3,342.9 416.3,344.3 416.2,345.9 415.3,350.1 415.1,351.8 415.7,353.5 416.4,355.1 420.5,367.5 426.5,385.7 427.0,387.6 428.9,393.2 421.8,401.6 420.5,402.9 419.4,403.9 419.3,405.4 421.4,412.4 421.9,414.0 422.4,416.2 422.6,418.1 422.5,419.9 422.4,421.8 421.9,424.2 421.4,426.4 420.4,429.5 419.8,431.7 419.2,433.4" stroke="#67C0DD"/>
<polyline points="419.2,433.4 417.3,437.9 416.8,439.6 416.9,443.3 416.8,444.7 415.4,446.5 413.1,447.7 412.0,449.1 412.0,450.8 413.3,451.7 416.0,451.9 424.3,452.0" stroke="#67C0DD"/>
<polyline points="424.3,452.0 426.0,452.1" stroke="#67C0DD"/>
<polyline points="426.0,452.1 430.6,454.9 436.2,458.3 438.4,459.5 440.1,460.5 441.4,461.2 442.9,462.3 444.5,463.6 449.1,467.6 450.5,468.8 451.9,469.8 453.3,470.5 461.0,473.3 462.7,473.8 465.5,475.2 468.6,476.7 471.0,478.3 473.9,480.4 478.3,483.3 482.6,486.4 492.3,493.1 501.6,499.4 507.8,503.7 513.8,507.9 518.1,510.7 520.5,511.4 525.5,511.9 529.5,512.2 537.0,513.3 538.7,513.8 541.2,515.2 543.2,516.4 545.1,517.6 548.7,519.7 552.1,521.4 555.6,523.5 568.3,530.7 570.8,531.3 572.9,531.4 577.7,530.9 579.5,530.9 581.7,531.1 583.7,531.7 585.6,532.8 586.9,534.2 588.4,536.5 589.2,538.0 590.1,539.6 592.0,541.8 594.3,544.3 596.0,545.7 597.2,547.1 598.5,554.4 601.0,563.7 602.9,568.1 604.0,570.7 605.5,572.5 608.9,575.3 611.8,576.6 616.5,576.4 620.5,577.2 625.3,579.8 635.3,586.3 640.4,589.6 645.9,593.2 650.2,595.9 661.5,603.3" stroke="#67C0DD"/>
<polyline points="388.8,267.6 388.8,267.6" stroke="#ed7b24"/>
<polyline points="394.0,354.1 394.9,351.4 394.0,354.1" stroke="#ed7b24"/>
<polyline points="424.2,376.3 427.0,376.6 425.5,376.4 424.2,376.3" stroke="#ed7b24"/>
<polyline points="471.4,379.3 469.0,379.2 468.4,379.1" stroke="#ed7b24"/>
<polyline points="368.4,211.5 367.4,212.5 365.9,214.1 364.9,215.8 364.6,218.0 365.2,221.1 367.1,226.3 373.4,241.8 374.0,243.7 375.1,246.6 376.6,248.5 379.0,249.8 380.1,250.8 381.0,251.9 383.7,256.3 386.3,260.5 387.6,263.4 388.4,266.1 389.0,268.3 389.9,272.5 390.1,276.3 389.9,277.9 388.6,280.9 387.5,282.3 386.1,283.8 385.0,284.9 383.9,285.9 382.9,287.2 382.1,288.8 381.5,290.8 381.1,292.4 380.9,293.8 381.5,296.2 382.5,297.5 383.7,298.5 385.0,299.2 387.7,300.0 391.7,300.9 394.2,301.6 395.6,302.2 397.2,303.8 398.2,306.9 399.4,316.5 399.4,318.5 399.1,320.3 397.4,324.1 396.3,326.0 395.4,328.2 395.2,337.5 396.2,341.3 396.5,342.8 396.6,344.2 396.5,345.8 395.9,347.8" stroke="#ed7b24"/>
<polyline points="395.9,347.8 395.2,350.1 394.3,352.8 393.5,355.4 392.7,357.0 391.7,358.1 390.9,358.8" stroke="#ed7b24"/>
<polyline points="390.9,358.8 389.3,359.7 386.3,360.7 384.8,361.3 383.6,362.2 382.5,363.3 381.7,364.8 381.2,366.2 381.1,368.0 381.4,369.7 382.1,371.2 383.2,372.6 384.3,373.5 385.9,374.3 387.5,374.7 389.5,374.7 391.2,374.6 393.2,374.7 395.3,374.9 399.1,375.1 405.5,375.5 414.0,375.9 424.2,376.5 425.6,376.6 427.4,376.7 429.0,376.8 430.5,376.9 434.8,377.1 443.3,377.9 459.8,378.9 462.0,378.9 462.4,378.9" stroke="#ed7b24"/>
<polyline points="462.4,378.9 463.9,379.0 465.6,379.1 467.0,379.2 469.9,379.3 471.3,379.4 471.9,379.4" stroke="#ed7b24"/>
<polyline points="471.9,379.4 473.6,379.2 475.1,378.6 476.2,377.7 477.4,376.8 478.8,376.0 482.0,374.9" stroke="#ed7b24"/>
<polyline points="482.0,374.9 485.8,373.7 492.7,371.4 495.1,370.9 497.2,371.1 499.5,372.0 505.1,374.9 507.6,376.2 509.4,377.0 511.7,377.6 513.1,377.8 514.6,377.9 516.9,377.9 519.4,377.5 522.6,376.7 524.0,376.2 527.9,373.6 530.6,372.0 532.2,371.3 534.3,371.2 536.1,371.6 537.7,372.6 539.4,374.4 544.1,381.9 545.8,384.5 546.8,386.1 552.2,395.3 555.1,400.1 558.2,405.2 559.8,406.4 561.7,407.3 563.6,407.7 565.1,407.7 566.6,407.5 571.7,404.9 573.9,403.8 575.6,402.9 577.1,402.8 584.5,405.2 593.5,408.0 608.9,408.2 615.7,407.4 618.7,406.7 622.2,404.6 623.8,403.3 625.3,399.4 626.7,393.6 627.6,388.2 628.5,386.4 629.8,385.1 631.1,384.4 633.3,383.8 635.0,384.4 636.2,385.3 641.9,390.0 648.8,396.8 656.4,404.3 678.0,412.0 697.8,417.5 711.9,422.5 718.3,422.3 722.3,421.1 723.8,419.9 727.7,418.6 733.2,416.3 740.8,413.5 752.7,413.9 755.3,414.4 758.7,415.0 764.5,414.5 772.1,416.2 773.5,416.4 778.2,416.9 782.1,416.8 785.0,416.8 788.1,416.7 790.7,416.0 792.2,415.1 794.4,412.8 795.8,411.6 798.3,410.6 801.0,410.6 803.8,411.5 805.0,412.3 806.8,414.8 807.5,416.3 808.4,420.2 808.9,422.0 810.4,426.9 810.9,429.1 810.6,430.9 810.0,432.4 809.1,434.2 807.9,435.4 806.3,436.4 804.8,437.0 797.7,439.2 794.6,439.4 792.7,439.2 791.0,438.6 788.2,436.9" stroke="#ed7b24"/>
<polyline points="442.5,354.9 442.2,358.2 442.5,354.9" stroke="#eba6c9"/>
<polyline points="705.9,290.6 706.1,293.0 705.8,291.0 705.9,290.6" stroke="#eba6c9"/>
<polyline points="442.2,358.4 442.5,356.3 442.7,354.4 443.2,352.8 443.7,351.9" stroke="#eba6c9"/>
<polyline points="443.7,351.9 446.2,348.6 447.2,347.1 448.0,345.9 449.1,344.7 450.3,343.3 451.6,341.8 452.7,340.6 453.8,339.3 454.8,337.8 455.7,336.5 457.5,333.8 457.6,333.7" stroke="#eba6c9"/>
<polyline points="457.6,333.7 458.5,332.4 459.4,331.2 460.5,330.1 462.9,327.7" stroke="#eba6c9"/>
<polyline points="462.9,327.7 464.4,326.2 465.4,325.2 466.5,324.3 467.8,323.7 470.8,322.8 472.0,322.6" stroke="#eba6c9"/>
<polyline points="472.0,322.6 474.4,322.6 476.3,322.6" stroke="#eba6c9"/>
<polyline points="476.3,322.6 478.0,322.6 480.4,322.8 482.1,323.0 484.2,323.1 485.8,323.2 487.6,323.1 489.0,323.0 491.5,322.7 495.5,322.2 497.1,322.0 498.6,321.7 500.0,321.4 501.4,320.9 502.9,320.2 504.4,319.3 505.6,318.4 506.8,317.4 507.9,316.3 513.1,310.4 514.1,309.2 515.1,308.0 515.9,306.8 517.6,303.8 518.3,302.5 519.2,301.1 520.2,299.7 521.2,298.7 522.3,297.6 523.4,296.7 524.6,295.8 526.0,295.0 527.3,294.4 528.8,293.9 530.5,293.4 532.6,292.8 534.4,292.3 536.4,291.7 536.9,291.6" stroke="#eba6c9"/>
<polyline points="536.9,291.6 539.0,290.9 541.5,290.1 544.1,289.3 545.6,288.8 547.0,287.9 548.6,286.8 549.8,286.0 551.3,285.5 552.7,285.2 554.2,285.2 555.7,285.4 557.3,285.6 559.2,285.7" stroke="#eba6c9"/>
<polyline points="559.2,285.7 565.2,286.1 567.7,286.5 571.4,287.2 574.0,288.1 576.5,289.8 579.4,292.4 589.6,301.5 591.8,303.0 594.1,304.0 596.9,304.5 598.8,304.6 600.9,304.4 607.9,303.2 609.8,302.9" stroke="#eba6c9"/>
<polyline points="609.8,302.9 611.8,302.6 613.6,302.4 623.0,300.8 625.4,300.7 627.2,300.9 651.4,305.0 655.6,305.6 677.4,306.7 682.3,306.6 683.9,306.5 685.3,306.4 687.3,306.1 697.6,304.6" stroke="#eba6c9"/>
<polyline points="697.6,304.6 699.2,304.3 700.9,303.7 702.5,302.8 703.7,301.7 704.6,300.5 705.3,299.2 705.7,297.6 705.9,295.8 706.1,293.2 706.2,291.8 706.3,289.4 706.3,287.5 706.1,286.1 705.5,284.8 704.5,283.4 703.3,282.5 702.0,281.6 699.4,279.9 697.4,278.6 695.2,277.2 693.0,275.8 690.9,274.4 689.5,273.4 687.6,272.2 685.5,270.8 683.3,269.4 681.8,268.4 680.6,267.6" stroke="#eba6c9"/>
<polyline points="680.6,267.6 677.5,265.5 672.6,261.0 667.6,253.8 660.8,239.0 659.3,230.6 659.0,227.3 658.9,220.6" stroke="#eba6c9"/>
<polyline points="449.6,296.1 452.5,295.3" stroke="#9C3293"/>
<polyline points="475.1,320.3 474.7,323.2 475.1,320.3" stroke="#9C3293"/>
<polyline points="387.3,223.9 385.8,221.8 384.5,220.6 381.6,218.5 380.4,217.6 379.4,216.4 378.8,215.0 378.8,213.3 379.3,211.9 381.8,207.6 382.8,206.5 384.3,205.8 388.1,205.5 390.9,205.3 392.4,205.0 393.9,204.4 402.0,200.5 403.4,199.8" stroke="#9C3293"/>
<polyline points="387.3,223.9 388.7,225.9 390.1,227.5 391.3,228.5" stroke="#9C3293"/>
<polyline points="391.3,228.5 394.2,230.6 396.2,232.1 398.0,233.8 398.9,234.9 402.1,238.9 403.7,240.5 406.5,243.0 408.3,244.5 409.9,246.0 410.9,247.0 411.9,248.7 413.1,252.7 415.0,259.5 416.4,264.8 417.2,267.7 417.8,270.1 418.4,272.1 418.9,273.5 419.9,274.9 423.8,277.8 424.9,278.7 431.1,284.6 432.3,285.7 434.8,288.1 436.7,289.8 438.1,290.9 442.1,293.9 443.9,295.4 445.5,296.4 446.9,296.7 448.6,296.4 450.9,295.8 458.3,293.9 460.3,293.4 462.5,293.0 464.1,292.9 466.7,292.6 469.4,292.3 470.8,292.2 472.6,292.3 474.3,293.0 475.6,293.9 476.8,295.5 477.6,297.8 476.8,303.3 475.7,309.1 474.9,320.3" stroke="#9C3293"/>
<polyline points="474.9,320.3 474.8,321.8 474.5,324.5 474.5,324.9" stroke="#9C3293"/>
<polyline points="474.5,324.9 473.3,339.4 471.6,358.9 471.2,363.0 470.8,367.6" stroke="#9C3293"/>
<polyline points="470.8,367.6 470.6,370.4 470.3,374.2 470.1,377.5 469.6,384.5" stroke="#9C3293"/>
<polyline points="469.6,384.5 469.0,393.4 467.4,417.7" stroke="#9C3293"/>
<polyline points="467.1,421.2 467.2,419.6 467.4,417.7" stroke="#9C3293"/>
<polyline points="470.1,436.2 469.8,434.5 469.4,431.4 469.1,429.9 468.8,428.5 468.3,426.6 467.8,424.8 467.4,423.1 467.2,421.6 467.1,421.2" stroke="#9C3293"/>
<polyline points="489.2,446.1 486.9,445.9 484.6,445.8 483.1,445.7 480.7,445.5 478.0,445.3 476.5,445.2 475.1,444.9 473.8,444.3 472.6,443.4 471.6,442.2 470.9,440.8 470.6,439.4 470.3,437.8 470.1,436.2" stroke="#9C3293"/>
<polyline points="489.2,446.1 490.8,446.2 493.5,446.3 495.1,446.5 496.8,446.8 498.4,447.6 500.0,449.2 501.1,450.9 502.1,452.1 503.4,453.0 509.0,455.0 512.3,456.1 514.1,456.7 515.6,457.0 518.8,457.0 524.2,456.8 525.9,456.9 528.5,457.8 532.9,459.5 535.1,460.3 537.3,461.2 539.4,462.3 541.0,463.3 542.5,464.4 543.9,465.6 552.0,472.5 553.0,473.5 554.5,476.3 555.4,478.1 556.7,480.0 557.9,481.3 560.1,482.8 561.7,483.8 562.9,484.6 565.1,485.5 566.6,486.0 568.7,486.8 575.2,488.7 579.0,490.1 585.7,494.6 588.6,495.9 591.2,496.1 593.7,495.5 594.9,493.5 596.6,488.0 599.6,478.0 600.0,476.4 600.6,474.2 601.5,472.4 602.8,471.6 604.6,471.7 607.3,472.0 611.7,474.0 616.9,474.7 619.6,475.2 621.7,475.5 624.3,475.4 636.0,476.1 641.6,476.6 644.4,477.4 646.9,478.3 650.0,480.2 653.5,484.1" stroke="#9C3293"/>
<polyline points="653.5,484.1 657.5,488.4 679.9,502.2" stroke="#9C3293"/>
<polyline points="683.2,505.0 681.6,503.5 679.9,502.2" stroke="#9C3293"/>
<polyline points="683.9,505.9 683.2,505.0" stroke="#9C3293"/>
<polyline points="744.9,565.7 743.2,563.7 741.7,562.1 740.5,560.8 738.6,559.1 736.0,557.0 733.6,555.1 729.9,552.0 726.5,549.3 722.2,545.6 716.3,540.4 712.9,537.3 709.2,534.0 705.2,530.4 701.2,526.8 698.3,524.2 696.7,522.6 695.1,520.8 693.7,519.0 692.2,517.0 688.6,512.1 687.0,510.1 685.3,507.7 683.9,505.9" stroke="#9C3293"/>
<polyline points="746.4,567.4 744.9,565.7" stroke="#9C3293"/>
<polyline points="751.2,573.1 746.4,567.4" stroke="#9C3293"/>
<polyline points="808.3,654.1 807.4,652.1 806.5,650.4 805.3,648.7 803.8,646.9 802.3,645.5 800.9,644.4 799.2,643.2 792.8,639.7 790.5,638.4 789.0,637.4 787.4,636.2 785.9,634.8 784.5,633.4 782.6,631.4 780.6,629.5 779.6,628.5 776.7,626.0 775.5,624.8 774.1,623.3 772.9,621.6 771.7,619.5 771.0,617.9 770.2,616.1 769.3,614.2 768.6,612.5 768.0,611.0 767.7,610.1" stroke="#9C3293"/>
<polyline points="819.5,696.2 818.9,694.8 817.9,692.7 817.4,691.2 817.0,689.6 816.9,688.0 817.1,686.0 817.5,682.8 817.6,681.0 817.6,679.5 817.4,677.8 817.2,676.2 816.8,674.4 816.3,672.8 815.6,670.8 814.0,667.2 811.9,662.2 810.0,657.9" stroke="#9C3293"/>
<polyline points="903.5,722.0 901.5,722.3 899.2,722.6 896.9,723.0 895.1,723.2 893.3,723.4 891.6,723.7 889.6,724.2 888.1,724.8 886.7,725.5 885.2,726.4 883.7,727.4 882.0,728.5 880.5,729.5 879.1,730.4 877.5,731.3 876.0,731.9 874.4,732.4 873.0,732.6 871.5,732.7 869.8,732.7 868.2,732.5 863.8,731.6 856.4,729.9 854.5,729.5 852.3,728.9 850.9,728.4 849.2,727.5" stroke="#9C3293"/>
<polyline points="978.1,756.8 977.4,754.9 976.1,752.6 975.0,751.1 973.6,749.1 972.2,747.1 968.9,742.4 966.8,739.3 965.7,737.6 964.7,735.9 963.3,733.6 962.0,731.3 959.2,726.6 956.7,722.4 955.5,720.5 954.4,719.2 953.3,718.0 952.2,717.0 950.7,716.0 949.2,715.1 947.9,714.5 946.5,714.0 945.1,713.7 943.0,713.4 941.5,713.3 940.0,713.4 938.1,713.7 936.6,714.1 934.6,714.9 932.8,715.9 931.4,716.8 929.3,718.2 928.1,719.0 926.8,720.0 925.2,720.9 923.8,721.5 922.2,722.0 920.7,722.2 919.2,722.3 916.8,722.1 913.1,721.8 911.2,721.6 909.4,721.5 907.9,721.5 905.9,721.7" stroke="#9C3293"/>
<polyline points="176.1,645.2 178.6,646.8 176.1,645.0 176.1,645.2" stroke="#a49a00"/>
<polyline points="157.8,633.3 157.8,633.3" stroke="#a49a00"/>
<polyline points="252.3,667.9 246.9,662.4 243.8,659.2 242.5,657.9 241.2,657.0 238.7,655.8 237.2,655.4 235.6,655.1 234.2,655.1 232.7,655.3 230.2,656.0 222.9,658.1 216.6,659.9 215.1,660.2 213.6,660.4 210.6,660.3 208.8,659.9 207.3,659.5 205.5,658.7 203.1,657.6 201.2,656.8 195.3,654.8 192.7,653.9 190.8,653.2 189.1,652.6 186.7,651.7 185.3,651.1 183.9,650.4 182.2,649.3 178.6,646.8 177.4,646.1" stroke="#a49a00"/>
<polyline points="266.5,692.5 267.5,690.4 267.8,688.9 267.7,686.5 267.0,684.4 265.1,681.9 259.7,675.7 257.3,673.0 255.0,670.7 252.3,667.9" stroke="#a49a00"/>
<polyline points="263.9,696.8 264.7,695.6 266.5,692.5" stroke="#a49a00"/>
<polyline points="290.7,702.8 286.6,708.0 285.7,709.2 284.8,710.6 283.0,712.2 281.6,713.0 278.9,713.7 274.6,713.8 271.6,713.8 270.1,713.8 267.6,713.3 265.4,712.2 263.6,710.6 262.1,708.4 261.4,706.1 261.2,703.5 261.6,701.5 262.4,699.6 263.9,696.8" stroke="#a49a00"/>
<polyline points="304.4,676.6 302.3,676.5 300.7,676.6 298.8,677.0 297.0,677.9 295.8,679.1 294.8,680.5 294.2,682.2 294.1,683.6 294.2,685.1 294.8,688.9 295.1,690.3 295.3,691.7 295.4,693.4 295.2,694.9 294.8,696.4 294.2,697.8 293.3,699.3 290.7,702.8" stroke="#a49a00"/>
<polyline points="332.9,671.9 328.7,673.2 326.5,673.8 324.8,674.3 318.2,675.7 315.4,676.3 313.9,676.6 311.1,676.6 308.5,676.6 304.4,676.6" stroke="#a49a00"/>
<polyline points="356.2,689.2 355.4,688.0 353.6,685.4 352.8,683.8 352.3,682.4 352.0,680.9 351.6,678.5 351.3,677.1 350.6,675.2 349.2,673.2 347.1,671.4 344.6,670.2 342.7,669.8 340.1,669.8 337.7,670.4 334.8,671.3 332.9,671.9" stroke="#a49a00"/>
<polyline points="380.2,704.2 378.2,703.2 366.5,699.0 363.5,697.6 361.6,696.4 359.6,693.9 358.4,692.1 356.2,689.2" stroke="#a49a00"/>
<polyline points="400.6,721.1 400.0,719.5 398.2,717.3 395.8,715.5 389.9,711.3 383.7,706.7 382.6,705.8 381.3,704.9 380.2,704.2" stroke="#a49a00"/>
<polyline points="342.2,778.7 342.5,776.4 342.7,773.5 342.6,771.5 342.0,768.0 341.5,765.0 340.8,762.9 339.2,759.3 338.4,756.1 338.9,753.3 339.7,752.0 341.3,750.0 342.7,748.9 344.3,748.4 348.1,748.2 351.4,748.1 353.9,748.4 357.9,749.8 359.9,750.6 362.5,751.3 365.1,751.2 367.3,750.6 368.6,749.9 369.7,749.0 371.2,747.3 373.3,744.4 375.1,742.0 378.4,737.5 379.4,736.1 380.4,735.1 382.2,733.8 384.7,733.1 386.8,733.1 388.9,733.7 390.5,734.6 392.1,735.4 394.4,736.0 396.7,735.8 398.8,735.0 400.8,733.4 402.0,731.3 402.6,729.7 402.6,727.4 402.3,725.8 401.5,723.6 400.6,721.1" stroke="#a49a00"/>
<polyline points="299.9,809.5 304.1,808.1 305.7,807.7 307.3,807.3 308.9,807.1 311.7,806.9 313.5,806.5 315.4,805.7 317.0,804.8 319.2,802.5 320.1,801.4 321.3,799.5 322.3,798.1 326.2,791.6 327.2,790.2 329.6,788.0 331.0,787.1 333.5,786.2 335.2,785.8 336.6,785.5 338.0,784.9 340.2,783.3 341.6,781.0 342.2,778.7" stroke="#a49a00"/>
<polyline points="235.0,814.5 237.7,813.7 240.7,812.1 243.8,810.4 245.4,809.7 246.9,809.2 248.3,808.9 257.5,807.3 267.4,805.6 269.2,805.4 270.6,805.4 272.2,805.7 274.8,806.5 277.7,807.9 283.6,810.7 285.7,811.6 287.5,812.0 290.2,812.1 291.7,812.0 294.7,811.2 299.1,809.8 299.9,809.5" stroke="#a49a00"/>
<polyline points="210.1,829.0 212.0,829.7 214.2,830.1 216.4,829.8 218.5,829.0 220.2,827.6 221.5,825.8 222.6,823.1 223.4,821.6 224.4,820.0 225.8,818.6 226.9,817.7 228.9,816.6 232.2,815.4 235.0,814.5" stroke="#a49a00"/>
<polyline points="95.8,644.3 87.5,646.9 85.1,647.7 83.5,648.3 81.1,649.7 76.0,653.4 74.5,654.5 73.1,655.2 71.7,655.8 70.3,656.1 68.9,656.4 65.9,656.9 63.3,657.4 61.2,657.7 59.1,657.7 56.4,657.7 55.0,657.8 53.2,658.2 51.8,658.6 50.1,659.3 48.6,660.1 47.4,661.0 46.1,662.3 45.1,664.2 44.7,665.7 44.5,667.9 44.7,671.4 44.7,673.5 44.9,676.1 44.9,677.7 45.3,680.1 46.7,682.9 48.3,684.4 50.4,685.4 52.9,685.8 55.2,685.8 56.6,685.9 59.1,686.6 60.9,687.7 62.4,689.3 63.6,691.9 64.2,693.8 65.5,697.9 66.0,700.2 66.2,703.1 65.9,705.4 65.5,706.9 64.8,708.5 63.0,711.6 62.0,712.7 59.8,715.6 58.4,717.3 56.2,719.1 54.1,720.0 52.4,720.4 50.4,720.7 47.7,721.4 45.6,722.6 43.6,724.6 42.0,726.8 39.9,729.6 38.9,731.0 37.9,732.8 37.4,735.1 37.5,737.5 38.3,739.6 39.6,741.4 41.3,742.6 49.4,747.2 51.3,748.2 53.0,748.9 55.4,749.8 57.6,750.2 60.2,750.5 62.3,750.8 66.3,751.2 68.7,751.7 71.2,752.5 73.4,753.7 75.0,754.8 76.9,756.6 77.9,757.9 78.8,759.1 79.7,760.7 80.7,762.3 83.5,766.9 85.5,770.1 90.1,777.6 91.0,778.9 92.0,780.3 93.0,781.3 94.5,782.6 96.0,783.7 97.4,784.4 99.1,785.3 100.9,785.8 102.8,786.3 104.7,786.4 118.0,786.4 122.9,786.3 125.5,786.3 127.7,786.5 129.7,787.1 131.2,788.2 133.6,790.1 134.8,791.1 136.7,792.4 138.6,793.4 140.5,794.1 142.2,794.7 143.8,795.3 145.3,796.2 146.9,797.5 148.4,799.1 153.1,803.7 154.7,805.4 155.8,806.9 156.6,808.3 158.0,811.8 159.0,814.1 160.6,815.8 162.3,816.9 163.6,817.3" stroke="#a49a00"/>
<polyline points="155.9,632.0 154.3,630.7 152.1,629.0 149.6,627.3 148.2,626.3 146.8,625.6 144.8,625.2 142.2,625.4 140.2,626.3 138.0,628.2 135.8,630.4 134.4,631.9 132.8,633.5 129.2,637.4 125.1,641.6 122.3,644.4 120.5,645.9 118.9,646.8 116.4,647.2 112.0,646.8 109.8,646.4 107.3,645.4 105.8,644.5 103.6,643.4 101.5,643.0 99.2,643.2 98.2,643.5" stroke="#a49a00"/>
<polyline points="161.4,636.1 158.7,634.2 155.9,632.0" stroke="#a49a00"/>
<polyline points="177.4,646.1 176.0,645.2 173.6,643.8 170.1,642.3 168.0,641.3 165.9,640.2 164.0,638.6 162.8,637.3 161.4,636.1" stroke="#a49a00"/>
<polyline points="471.9,377.2 472.8,378.4" stroke="#824100"/>
<polyline points="479.0,389.6 479.2,388.1" stroke="#824100"/>
<polyline points="474.5,416.1 475.7,416.2" stroke="#824100"/>
<polyline points="477.9,362.9 479.8,361.3 488.5,353.6 492.1,350.1 493.2,349.1 494.8,347.9 497.7,346.0 501.2,342.2 504.2,336.0 506.1,335.0 508.7,333.5 520.5,326.1 524.5,323.5 527.4,321.8 531.5,319.0 537.3,318.2 543.8,316.6 546.9,317.4 549.3,316.9 550.9,315.1 553.3,312.1 558.8,307.6 560.5,307.0 562.2,306.7 564.8,306.7 566.1,305.5 566.2,303.4 565.3,299.3 563.6,295.1 562.6,292.9 561.3,290.2 559.0,285.6 556.5,279.3 556.6,276.9 556.9,272.2 556.2,269.9 555.2,268.3 543.5,264.7 529.3,271.6 519.2,273.6 514.9,271.7 512.8,270.8 511.4,269.8 509.1,268.1 507.9,267.2 506.6,266.2 502.7,262.5 501.4,261.3 498.2,258.2 496.4,256.5" stroke="#824100"/>
<polyline points="471.1,376.4 470.4,374.9 470.2,373.3 470.4,371.7 470.6,370.0 471.1,368.5 472.1,367.3 473.4,366.5 474.6,365.7 476.1,364.7 477.3,363.6 477.9,362.9" stroke="#824100"/>
<polyline points="474.6,380.8 473.7,379.6 472.3,377.8 471.1,376.4" stroke="#824100"/>
<polyline points="478.5,395.2 478.8,391.4 479.0,388.9 479.1,387.5 478.8,385.9 478.0,384.4 476.7,383.2 475.5,381.8 474.6,380.8" stroke="#824100"/>
<polyline points="478.5,395.2 478.1,402.8 477.9,407.8 477.6,410.6" stroke="#824100"/>
<polyline points="477.6,410.6 478.3,413.6 477.7,415.3 476.8,416.0" stroke="#824100"/>
<polyline points="476.8,416.0 475.1,416.1 472.9,415.9 471.4,415.8 468.8,415.7 467.3,415.6 465.1,415.5 462.9,415.3 460.4,415.2 457.0,415.0 455.1,414.8 453.5,414.7 452.0,414.6 450.4,414.3 448.8,413.8 447.2,413.7 445.1,414.2 443.7,414.2 442.2,413.8 434.3,408.6" stroke="#824100"/>
<polyline points="389.8,399.6 391.2,399.8 394.2,400.0 396.4,400.5 399.2,401.0 402.3,401.2 404.8,401.6 408.2,402.1 409.9,402.1 411.6,402.0 413.0,402.4 414.6,403.1 417.3,403.7 418.9,404.2 420.5,404.3 422.4,404.7 430.6,406.9 432.6,407.8 433.9,408.4 434.3,408.6" stroke="#824100"/>
<polyline points="434.9,198.8 435.1,197.0 435.4,195.6 435.8,194.3" stroke="#015396"/>
<polyline points="435.9,193.0 436.1,191.0 436.6,189.4 436.3,186.9 435.5,185.4 432.3,183.0 430.7,181.4 430.1,179.1 430.5,177.2 432.0,175.6 434.4,174.9 435.8,174.9 443.3,176.8 445.3,177.1 448.7,177.4 451.8,177.5 480.3,176.3 483.9,175.8 487.5,175.1 489.6,174.4 491.2,173.5 492.6,172.7 493.9,171.7 494.9,170.5 498.5,165.1 506.8,154.6 515.2,119.2 516.2,117.7 517.9,116.2 522.0,114.4 552.0,111.8 559.4,109.3 565.8,107.1 565.4,99.9 560.7,83.3 560.2,81.7 555.0,76.6 541.2,63.0 539.8,61.5 538.4,58.3 540.6,53.3 545.6,49.2 548.2,47.8 553.9,44.8 556.3,43.8 558.2,43.1 559.6,42.7 565.5,40.9 567.0,40.7 568.9,40.9 570.6,41.8 572.2,42.8 573.9,44.1 576.7,46.1 578.5,47.4 580.0,48.4 581.3,49.1 585.3,50.0 591.1,51.4 592.5,51.8 594.3,52.0 595.7,51.9 597.1,51.6 598.8,50.4 600.4,49.2 603.9,46.0 605.2,44.3 606.9,41.9 613.6,32.4 615.4,29.9 617.2,27.3 618.5,25.6" stroke="#015396"/>
<polyline points="474.7,320.3 474.4,323.2 474.7,320.3" stroke="#9C3293"/>
<polyline points="449.7,296.3 452.6,295.5" stroke="#9C3293"/>
<polyline points="905.9,721.8 907.4,721.6 909.4,721.5 911.2,721.7 913.1,721.8 915.7,722.1 918.0,722.3 920.0,722.4 921.8,722.2 923.5,721.7 925.2,721.0 926.5,720.2 928.2,719.1 929.4,718.3 930.6,717.4 931.9,716.5 933.4,715.6 934.7,715.0 936.7,714.2 938.2,713.8 940.0,713.5 941.5,713.4 943.0,713.5 944.6,713.7 946.5,714.1 948.5,714.9 950.1,715.7 951.6,716.7 952.8,717.6 953.8,718.7 954.9,720.0 955.9,721.3 959.1,726.6 961.9,731.4 963.3,733.7 964.6,736.0 965.7,737.6 966.7,739.3 968.9,742.5 972.1,747.2 973.5,749.1 974.9,751.2 976.0,752.7 977.1,754.4 977.8,756.0 978.0,756.9" stroke="#9C3293"/>
<polyline points="903.5,722.1 901.5,722.4 899.2,722.7 896.9,723.0 895.1,723.3 893.3,723.5 891.6,723.8 889.6,724.3 888.1,724.8 886.7,725.5 885.2,726.5 883.7,727.5 882.1,728.6 880.6,729.6 879.2,730.5 877.5,731.4 876.0,732.0 874.5,732.4 873.0,732.7 871.5,732.8 869.8,732.8 868.2,732.6 863.8,731.6 856.4,730.0 854.4,729.5 852.3,729.0 850.9,728.5 849.2,727.6" stroke="#9C3293"/>
<polyline points="819.4,696.2 817.8,692.7 817.3,691.2 816.9,689.6 816.8,688.0 817.0,686.0 817.3,682.8 817.4,681.0 817.4,679.5 817.3,677.8 817.1,676.2 816.7,674.5 816.2,672.8 815.5,670.9 813.9,667.2 811.8,662.2 809.8,657.9" stroke="#9C3293"/>
<polyline points="808.2,654.1 807.3,652.1 806.4,650.5 805.2,648.7 803.8,647.0 802.2,645.5 800.8,644.4 799.2,643.3 792.8,639.8 790.4,638.5 788.9,637.5 787.3,636.3 785.8,634.8 784.5,633.4 783.5,632.4 782.5,631.4 780.5,629.5 778.6,627.7 776.7,626.0 775.4,624.9 774.1,623.3 772.9,621.6 771.7,619.6 770.9,617.9 770.1,616.2 769.3,614.2 768.5,612.5 767.9,611.1 767.6,610.1" stroke="#9C3293"/>
<polyline points="751.1,573.2 746.3,567.4" stroke="#9C3293"/>
<polyline points="746.3,567.4 744.8,565.7" stroke="#9C3293"/>
<polyline points="744.8,565.7 743.1,563.8 741.6,562.1 740.4,560.9 738.6,559.2 735.9,557.1 733.6,555.2 729.8,552.1 726.5,549.3 722.1,545.7 716.2,540.4 712.8,537.4 709.2,534.1 705.2,530.5 701.2,526.9 698.2,524.2 696.6,522.7 695.0,520.9 693.6,519.0 692.2,517.1 688.5,512.2 687.4,510.7 685.2,507.8 683.7,505.9" stroke="#9C3293"/>
<polyline points="683.7,505.9 683.1,505.0" stroke="#9C3293"/>
<polyline points="683.1,505.0 681.6,503.6 679.9,502.3" stroke="#9C3293"/>
<polyline points="653.4,484.2 657.4,488.6 679.9,502.3" stroke="#9C3293"/>
<polyline points="489.1,446.2 490.8,446.3 493.6,446.7 495.2,446.8 497.0,447.1 498.5,447.9 499.9,449.3 501.2,451.2 502.3,452.4 503.6,453.3 509.0,455.2 512.4,456.4 514.3,457.0 515.7,457.3 518.9,457.3 524.3,457.1 526.0,457.2 528.5,458.0 533.1,459.8 535.3,460.6 537.4,461.5 539.5,462.6 541.1,463.6 542.6,464.7 544.0,465.9 551.9,472.6 553.0,473.6 554.4,476.3 555.3,478.1 556.3,479.6 557.4,480.9 559.0,482.3 560.2,483.1 561.8,484.1 563.1,484.9 565.5,485.9 568.8,487.1 575.5,489.0 578.9,490.2 585.6,494.7 588.5,496.1 591.2,496.3 593.7,495.6 594.9,493.7 596.8,488.0 599.7,478.3 600.3,476.4 600.9,474.1 601.7,472.6 602.9,471.8 605.5,472.1 607.3,472.3 610.9,473.9 617.0,475.0 619.7,475.5 621.8,475.8 624.5,475.7 636.2,476.4 641.7,476.9 644.5,477.7 647.0,478.6 650.1,480.5 653.4,484.2" stroke="#9C3293"/>
<polyline points="489.1,446.2 486.8,446.1 484.5,445.9 483.0,445.8 480.6,445.7 477.9,445.5 476.4,445.3 475.0,445.0 473.7,444.4 472.5,443.5 471.5,442.4 470.8,441.0 470.5,439.6 470.3,438.0 469.9,436.2" stroke="#9C3293"/>
<polyline points="469.9,436.2 469.6,434.5 469.1,431.4 468.8,430.0 468.5,428.6 468.0,426.7 467.5,424.9 467.2,423.5 467.1,423.4" stroke="#9C3293"/>
<polyline points="467.1,423.4 466.9,422.0 466.9,421.4" stroke="#9C3293"/>
<polyline points="466.9,421.4 467.0,419.9 467.1,418.0" stroke="#9C3293"/>
<polyline points="469.5,384.5 468.8,393.4 467.3,415.7 467.1,418.0" stroke="#9C3293"/>
<polyline points="470.7,367.6 470.6,369.4 470.4,371.2 470.3,372.6 470.1,375.0 469.9,377.1 469.7,381.5 469.5,384.5" stroke="#9C3293"/>
<polyline points="474.4,324.9 473.2,339.4 471.2,359.2 470.8,363.3 470.7,367.6" stroke="#9C3293"/>
<polyline points="474.8,320.3 474.7,321.8 474.4,324.9" stroke="#9C3293"/>
<polyline points="391.1,228.7 394.8,231.7 396.7,233.3 398.5,235.2 401.7,239.2 403.3,240.8 406.1,243.3 407.9,244.8 409.5,246.3 410.5,247.3 411.5,249.0 412.7,253.0 414.6,259.8 416.0,265.1 416.8,268.0 417.4,270.4 418.0,272.2 418.5,273.8 419.5,275.2 423.4,278.1 424.5,279.0 430.7,284.9 431.9,286.0 434.4,288.4 436.3,290.1 437.7,291.2 441.7,294.2 443.5,295.7 445.1,296.7 446.5,297.0 448.7,296.5 450.9,295.9 457.9,294.2 459.8,293.7 462.1,293.3 463.7,293.2 466.7,292.7 469.0,292.6 470.4,292.5 472.2,292.6 473.9,293.3 475.2,294.2 476.4,295.8 477.2,298.1 476.4,303.6 475.6,309.1 474.8,320.3" stroke="#9C3293"/>
<polyline points="387.0,224.2 388.7,226.4 390.1,227.9 391.1,228.7" stroke="#9C3293"/>
<polyline points="387.0,224.2 385.6,221.9 384.4,220.7 381.5,218.6 380.3,217.7 379.3,216.5 378.7,215.1 378.7,213.4 379.1,212.0 381.7,207.6 382.7,206.4 384.3,205.7 388.1,205.4 390.9,205.2 392.4,204.8 393.9,204.3 403.3,199.6" stroke="#9C3293"/>
<polyline points="474.5,415.8 475.8,415.9" stroke="#824100"/>
<polyline points="478.8,389.6 479.0,388.1" stroke="#824100"/>
<polyline points="471.7,377.3 472.6,378.6" stroke="#824100"/>
<polyline points="389.8,399.3 392.0,399.6 394.2,399.9 396.4,400.4 399.2,400.9 402.3,401.1 404.8,401.5 408.2,402.0 410.0,402.0 411.5,401.9 413.1,402.3 414.6,403.0 417.3,403.7 418.9,404.1 420.5,404.3 422.5,404.6 430.7,406.8 432.6,407.7 434.1,408.3 434.4,408.5" stroke="#824100"/>
<polyline points="434.4,408.5 441.2,413.0 442.7,413.8 444.2,414.1 447.2,413.6 448.9,413.6 450.5,414.2 452.0,414.5 453.5,414.6 455.1,414.7 456.5,414.8 459.9,415.1 461.9,415.1 464.6,415.4 468.8,415.6 470.5,415.7 472.1,415.7 475.1,416.0 476.6,416.0 477.5,414.8 477.5,411.9 477.6,410.4 477.7,407.7 478.1,402.8 478.4,395.3" stroke="#824100"/>
<polyline points="478.4,395.3 478.6,393.2 478.7,391.4 478.9,388.9 479.0,387.5 478.7,385.9 477.9,384.5 476.7,383.4 475.4,381.9 474.5,380.9" stroke="#824100"/>
<polyline points="474.5,380.9 473.6,379.6 472.2,377.9 471.1,376.5" stroke="#824100"/>
<polyline points="471.1,376.5 470.3,375.2 470.1,373.7 470.3,371.7 470.4,370.3 470.9,368.7 471.8,367.4 473.3,366.4 474.5,365.6 476.0,364.6 477.2,363.5 477.9,362.9" stroke="#824100"/>
<polyline points="477.9,362.9 479.7,361.1 488.7,353.3 493.1,349.0 494.7,347.8 497.7,345.6 501.1,342.1 504.0,336.0 506.1,334.9 508.5,333.5 520.3,325.9 524.4,323.4 527.2,321.6 531.4,318.8 537.3,318.0 543.8,316.3 546.9,317.2 549.2,316.7 550.7,315.0 553.2,312.0 558.7,307.5 560.4,306.8 562.2,306.5 564.7,306.5 565.9,305.4 566.0,303.4 565.3,300.1 563.4,295.2 562.4,293.0 561.2,290.3 558.9,285.6 556.3,279.3 556.4,276.9 556.8,272.2 556.0,270.0 555.0,268.5 548.6,266.3 543.5,264.9 529.4,271.9 519.3,273.9 512.6,271.0 511.2,270.0 508.9,268.3 507.7,267.5 506.2,266.3 503.1,263.3 501.2,261.5 500.1,260.4 497.9,258.4 496.2,256.7" stroke="#824100"/>
<polyline points="475.9,482.0 478.4,483.7 475.9,482.1 475.9,482.0" stroke="#67C0DD"/>
<polyline points="448.0,466.8 449.7,468.3 448.2,467.3 448.0,466.8" stroke="#67C0DD"/>
<polyline points="441.8,461.6 443.0,462.5 441.7,461.7 441.8,461.6" stroke="#67C0DD"/>
<polyline points="420.2,429.4 419.6,431.7 420.0,430.3 420.2,429.4" stroke="#67C0DD"/>
<polyline points="417.5,331.5 417.9,329.1 417.5,331.1 417.5,331.5" stroke="#67C0DD"/>
<polyline points="433.9,301.5 435.4,300.9 433.9,301.5" stroke="#67C0DD"/>
<polyline points="445.8,296.5 447.1,294.6" stroke="#67C0DD"/>
<polyline points="425.9,452.2 430.5,455.1 436.1,458.4 438.3,459.6 440.1,460.5 441.4,461.3 442.9,462.3 444.5,463.7 449.1,467.6 450.4,468.8 451.9,469.8 453.3,470.6 460.9,473.3 462.7,473.9 465.4,475.3 468.6,476.9 470.9,478.5 473.8,480.4 476.2,482.1 482.5,486.6 492.2,493.3 501.5,499.5 507.7,503.8 513.7,508.0 518.0,510.9 520.3,511.5 525.5,512.0 529.5,512.4 533.3,513.0 537.0,513.5 538.7,514.0 541.1,515.4 543.2,516.6 545.0,517.7 548.7,519.8 550.1,520.5 552.1,521.6 555.5,523.5 568.3,530.8 570.8,531.4 572.9,531.5 577.7,531.0 579.4,531.0 581.7,531.2 583.7,531.8 585.5,532.9 586.8,534.2 588.4,536.6 589.1,538.0 590.0,539.6 591.1,541.0 594.7,544.9 596.1,545.8 597.1,547.1 598.0,552.4 598.4,554.4 600.9,563.7 602.8,568.2 603.8,570.8 605.4,572.6 608.9,575.5 611.8,576.7 616.6,576.6 620.4,577.3 625.3,579.9 635.3,586.4 640.4,589.7 645.9,593.3 650.2,596.1 661.3,603.5 663.6,605.0 664.8,605.4" stroke="#67C0DD"/>
<polyline points="424.3,452.2 425.9,452.2" stroke="#67C0DD"/>
<polyline points="419.2,433.4 417.2,437.9 416.8,439.6 416.9,443.3 416.7,444.7 415.4,446.4 413.1,447.7 411.9,449.1 411.9,450.8 413.3,451.8 416.0,451.9 424.3,452.2" stroke="#67C0DD"/>
<polyline points="418.4,327.1 417.8,330.1 417.6,331.5 416.9,337.4 416.2,342.9 416.2,344.3 416.1,345.9 415.2,350.1 415.1,351.8 415.7,353.5 416.3,355.1 420.4,367.5 426.3,385.8 428.8,393.3 421.7,401.6 420.5,402.8 419.3,403.9 419.2,405.4 420.3,409.1 421.3,412.4 421.8,414.0 422.3,416.2 422.4,418.0 422.4,420.0 422.3,421.8 421.8,424.2 421.3,426.4 420.3,429.5 419.7,431.7 419.2,433.4" stroke="#67C0DD"/>
<polyline points="432.9,302.5 430.6,305.7 428.9,308.4 427.8,311.8 425.7,314.8 423.4,317.5 420.1,322.6 418.4,327.1" stroke="#67C0DD"/>
<polyline points="437.5,300.0 436.1,300.6 434.5,301.3 433.2,302.1 432.9,302.5" stroke="#67C0DD"/>
<polyline points="496.6,256.3 494.8,255.1 492.9,254.2 486.5,252.1 485.0,251.9 482.6,252.1 480.2,253.2 478.3,255.2 477.3,257.2 475.3,265.2 474.3,267.9 472.8,270.1 470.6,271.9 468.3,273.1 465.6,273.9 463.4,274.1 457.3,272.3 455.1,272.2 453.0,272.5 450.9,273.6 449.7,275.7 449.4,277.2 449.3,278.8 449.1,285.1 449.0,286.5 448.7,288.0 448.1,290.6 447.4,294.0 446.5,295.5 445.6,296.7 444.4,297.8 442.8,298.6 440.6,298.7 437.5,300.0" stroke="#67C0DD"/>
<polyline points="706.6,290.6 706.2,293.0 706.7,291.0 706.6,290.6" stroke="#eba6c9"/>
<polyline points="442.8,354.9 442.4,358.2 442.8,354.9" stroke="#eba6c9"/>
<polyline points="680.5,267.2 678.0,265.2 673.1,260.8 668.0,253.5 661.3,238.7 659.4,230.6 659.6,227.3 659.5,220.6" stroke="#eba6c9"/>
<polyline points="697.6,304.6 699.2,304.4 700.6,303.9 702.1,303.2 703.2,302.3 704.2,301.2 705.0,299.9 705.6,298.6 705.9,297.2 706.0,295.8 706.1,293.8 706.2,291.8 706.4,289.4 706.4,287.5 706.2,286.1 705.6,284.7 704.5,283.3 703.4,282.4 702.1,281.5 699.5,279.8 697.7,278.6 695.5,277.2 693.3,275.7 691.2,274.3 689.8,273.4 687.9,272.1 685.7,270.7 683.6,269.3 682.1,268.3 680.5,267.2" stroke="#eba6c9"/>
<polyline points="609.9,303.4 611.9,303.0 613.6,302.6 623.1,300.9 625.4,300.9 627.2,301.0 651.4,305.2 655.6,305.8 677.4,306.9 682.4,306.7 683.9,306.6 685.3,306.5 687.3,306.2 697.6,304.6" stroke="#eba6c9"/>
<polyline points="559.1,285.8 565.3,286.3 571.4,287.3 573.8,288.2 575.1,289.0 576.3,289.9 589.5,301.6 591.7,303.1 594.1,304.2 596.9,304.8 598.9,304.9 600.8,304.8 608.0,303.7 609.9,303.4" stroke="#eba6c9"/>
<polyline points="537.0,291.9 539.0,291.3 541.5,290.5 544.1,289.7 545.5,289.1 546.8,288.4 548.6,287.1 550.0,286.3 551.5,285.8 552.9,285.6 554.4,285.6 557.5,285.8 559.1,285.8" stroke="#eba6c9"/>
<polyline points="476.3,322.6 477.8,322.7 480.8,323.0 482.5,323.2 484.6,323.3 486.2,323.4 487.6,323.4 489.0,323.2 490.6,323.0 493.1,322.8 495.8,322.4 497.4,322.2 499.0,321.9 500.6,321.5 502.0,321.0 503.5,320.2 505.0,319.3 506.3,318.4 507.5,317.3 508.6,316.2 513.4,310.7 514.4,309.6 515.3,308.4 516.2,307.0 518.0,304.0 518.7,302.7 519.5,301.3 520.6,299.9 521.6,298.7 522.9,297.6 524.0,296.7 525.2,295.9 526.6,295.1 528.1,294.5 529.5,294.0 530.9,293.6 532.9,293.1 534.3,292.7 535.8,292.2 537.0,291.9" stroke="#eba6c9"/>
<polyline points="472.0,322.7 474.4,322.7 476.3,322.6" stroke="#eba6c9"/>
<polyline points="462.9,327.7 464.4,326.3 465.4,325.3 466.5,324.4 467.8,323.7 470.8,322.9 472.0,322.7" stroke="#eba6c9"/>
<polyline points="457.5,333.8 458.5,332.4 459.4,331.3 460.5,330.1 462.9,327.7" stroke="#eba6c9"/>
<polyline points="443.8,351.9 446.1,348.6 447.2,347.1 448.1,345.9 449.1,344.7 450.3,343.3 451.6,341.9 452.7,340.7 453.7,339.4 454.8,337.9 455.7,336.6 457.5,333.8 457.5,333.8" stroke="#eba6c9"/>
<polyline points="442.2,358.4 442.5,356.3 442.8,354.5 443.3,352.8 443.8,351.9" stroke="#eba6c9"/>
<polyline points="586.6,369.0 584.4,369.8" stroke="#96bf0d"/>
<polyline points="563.7,377.3 561.5,378.1" stroke="#96bf0d"/>
<polyline points="421.3,430.1 419.8,430.1 421.3,430.1" stroke="#96bf0d"/>
<polyline points="402.9,434.6 403.4,436.9" stroke="#96bf0d"/>
<polyline points="409.8,476.4 411.8,475.7 410.2,476.4 409.8,476.4" stroke="#96bf0d"/>
<polyline points="280.7,516.0 279.3,514.1 279.2,514.0" stroke="#96bf0d"/>
<polyline points="670.6,321.3 660.8,329.8 659.4,331.0 657.9,332.2 656.1,333.6 654.3,334.4 651.9,335.0 649.8,335.1 644.3,334.9 641.6,335.2 640.1,335.7 638.6,336.3 636.3,337.4 633.9,338.8 632.0,340.2 626.2,344.9 624.4,346.5 615.9,353.8 607.8,360.8 606.4,361.7 584.6,369.6 561.0,378.1 559.2,378.9 548.5,385.5 545.2,387.6 538.1,392.1 533.3,393.1 530.2,393.7 526.8,394.3 520.4,395.4 517.0,396.1 511.1,397.0 508.5,397.4 507.1,397.7 505.1,397.5 503.7,396.8 501.3,395.5 499.8,394.8 498.2,394.4 496.3,394.6 488.2,395.6" stroke="#96bf0d"/>
<polyline points="488.2,395.6 486.5,395.6 485.0,394.9 483.4,394.4 480.7,394.2 475.2,393.8" stroke="#96bf0d"/>
<polyline points="475.2,393.8 472.4,393.6 471.3,393.5" stroke="#96bf0d"/>
<polyline points="471.3,393.5 469.0,393.5 451.1,392.3" stroke="#96bf0d"/>
<polyline points="451.1,392.3 449.3,392.3 446.7,392.4 445.0,392.4" stroke="#96bf0d"/>
<polyline points="445.0,392.4 443.4,393.0 441.6,396.0" stroke="#96bf0d"/>
<polyline points="441.6,396.0 440.9,397.8 440.1,399.5 439.1,400.9 433.1,408.2 432.0,409.7 431.4,411.0 430.9,413.4 430.5,418.3 430.2,420.0 429.6,421.3 429.0,422.8 428.3,424.4 427.6,425.9 425.8,428.0 424.8,429.0 423.5,429.8 422.8,430.0" stroke="#96bf0d"/>
<polyline points="422.8,430.0 421.3,430.0 419.0,430.0 417.9,429.9" stroke="#96bf0d"/>
<polyline points="417.9,429.9 413.4,429.2 411.2,429.4 408.2,429.4 406.5,429.5 405.1,430.1 403.7,431.3 403.0,433.0 402.9,434.6 403.4,437.7 403.8,439.1 404.6,440.6 406.1,442.4 407.0,444.1 407.5,446.7 407.7,449.2 407.4,450.9 406.3,453.8 404.8,456.3 400.2,463.6" stroke="#96bf0d"/>
<polyline points="400.2,463.6 399.4,465.2 399.5,466.8 400.1,468.4" stroke="#96bf0d"/>
<polyline points="400.1,468.4 401.3,469.3 404.8,470.2 406.4,470.5 408.0,470.4 409.5,470.1 411.1,469.7 412.5,469.8 413.9,470.7 414.6,472.2 414.4,473.5" stroke="#96bf0d"/>
<polyline points="414.4,473.5 413.5,474.9 412.2,475.5 408.7,476.8 406.6,477.5" stroke="#96bf0d"/>
<polyline points="406.6,477.5 401.1,479.5 399.7,480.2 397.7,482.0 396.3,483.0 395.4,484.3 392.8,490.9 391.3,492.6 387.2,495.6 379.0,501.6 376.9,503.2 372.5,506.3 370.4,507.9 368.2,509.4 354.1,520.7 335.9,520.2 325.0,523.0 316.1,529.5 311.6,532.8 310.5,533.6" stroke="#96bf0d"/>
<polyline points="310.5,533.6 309.0,534.5 307.5,535.1 306.0,535.3 304.2,535.3 296.1,534.1 294.7,533.8 293.3,533.2 292.1,532.1 291.6,531.4" stroke="#96bf0d"/>
<polyline points="291.6,531.4 290.0,529.3 288.9,527.8" stroke="#96bf0d"/>
<polyline points="288.9,527.8 288.1,526.3 287.3,525.0" stroke="#96bf0d"/>
<polyline points="287.3,525.0 280.9,516.2 279.8,514.6" stroke="#96bf0d"/>
<polyline points="279.8,514.6 276.9,510.6 274.7,505.9 273.6,503.1 272.9,501.1 272.8,499.4 273.1,497.6 273.7,495.9 275.4,492.7 275.9,491.2 277.2,489.6 279.9,487.0 282.8,484.2 288.5,478.7 289.0,478.4" stroke="#96bf0d"/>
<polyline points="436.7,490.9 436.8,489.3 436.7,490.9" stroke="#FFDF00"/>
<polyline points="436.0,479.1 434.5,478.8 436.0,479.1" stroke="#FFDF00"/>
<polyline points="418.9,474.6 418.8,473.2 418.9,474.6" stroke="#FFDF00"/>
<polyline points="403.8,722.7 403.4,719.3 403.2,717.4 402.8,715.9 402.0,714.4 401.2,713.2 397.3,708.3 396.4,707.0 395.8,705.5 395.4,703.8 395.0,701.9 394.1,699.6 393.1,697.7 391.9,696.1 390.4,694.9 378.8,686.8 377.2,685.1 376.3,683.2 376.0,681.1 378.1,672.7" stroke="#FFDF00"/>
<polyline points="378.1,672.7 379.3,669.4 380.9,665.1 382.1,661.9 383.2,660.3 384.6,658.9 385.9,658.0 387.5,657.5 389.4,657.3 398.0,658.1" stroke="#FFDF00"/>
<polyline points="398.0,658.1 403.2,658.4 408.8,662.2 419.1,661.8 421.2,661.7 433.1,661.4 435.0,660.2 436.3,658.5 437.7,656.6 440.0,653.6 441.0,651.5 441.3,650.1 441.5,648.7 441.2,643.8 441.0,642.4 440.1,640.1 439.7,637.9 439.8,629.4 439.7,621.1 439.6,619.7 438.6,614.0 438.8,610.7 438.3,602.9 436.2,574.5 433.0,559.4 428.8,536.4 427.9,533.7 427.5,531.8 426.2,526.6 426.1,523.8 426.4,522.2 427.1,520.6 428.0,519.0 429.3,517.4 433.9,513.1 434.8,511.5 435.2,509.3 435.4,507.4 435.3,505.5 435.6,502.2 436.3,494.1 436.7,492.0 436.8,490.1 437.2,485.2 437.7,483.7 438.4,482.4 438.6,481.0 438.0,479.7 436.6,479.1 431.5,478.3 429.8,478.2 428.2,478.5 426.6,478.9 425.1,479.3 423.7,479.3 422.3,478.8 421.1,478.0 419.9,476.5 419.2,475.1 419.1,474.7" stroke="#FFDF00"/>
<polyline points="419.1,471.7 418.9,473.3 419.1,474.7" stroke="#FFDF00"/>
<polyline points="398.0,417.8 398.8,419.4 400.2,420.7 404.4,423.3 405.8,424.3 407.9,426.3 409.0,427.3 410.4,428.9 411.2,430.5 412.5,433.5 415.0,438.2 415.9,439.9 418.3,457.8 418.7,459.4 419.5,460.8 420.6,461.9 421.9,463.1 422.5,464.4 422.4,466.0 420.4,469.4 419.4,470.9 419.1,471.7" stroke="#FFDF00"/>
<polyline points="381.8,387.2 383.6,390.6 385.2,394.0 387.4,397.8 391.2,404.5 394.6,410.4 397.3,415.9 398.0,417.8" stroke="#FFDF00"/>
<polyline points="380.9,383.1 380.9,385.3 381.6,386.9 381.8,387.2" stroke="#FFDF00"/>
<polyline points="636.8,419.2 638.0,420.2 636.8,419.2" stroke="#fb0f0c"/>
<polyline points="616.2,423.4 617.8,422.8 616.2,423.4" stroke="#fb0f0c"/>
<polyline points="590.6,435.6 592.2,435.0 590.6,435.6" stroke="#fb0f0c"/>
<polyline points="558.5,420.7 560.2,421.0 558.5,420.7" stroke="#fb0f0c"/>
<polyline points="534.4,409.9 536.1,409.7 534.4,409.9" stroke="#fb0f0c"/>
<polyline points="475.4,417.5 476.7,416.8" stroke="#fb0f0c"/>
<polyline points="465.7,423.3 467.7,422.1" stroke="#fb0f0c"/>
<polyline points="417.8,438.5 416.3,438.5" stroke="#fb0f0c"/>
<polyline points="402.6,435.2 403.9,436.1" stroke="#fb0f0c"/>
<polyline points="637.8,419.7 636.5,419.0 635.2,418.3 633.5,417.5 632.1,417.2 630.5,417.1 628.6,417.5 618.0,422.5 615.6,423.6 592.9,434.5 589.8,435.9 587.7,436.4 585.9,436.3 584.5,435.9 583.2,435.2 576.4,430.4 571.6,427.1 570.1,426.0 568.4,424.3 566.5,422.5 565.1,421.6 563.5,421.2 561.4,420.9 559.9,420.8 557.3,420.6 555.6,420.2 554.1,419.6 552.7,418.7 551.7,417.7 548.3,413.8 547.0,412.4 543.2,409.9 541.5,409.2 539.8,409.1 538.0,409.2 535.2,409.7 533.2,410.1 531.5,410.2 529.8,410.0 528.1,409.4 526.7,408.5 524.6,406.4 521.3,402.8 520.2,401.5 519.0,400.5 517.6,399.6 516.1,399.1 513.9,398.9 511.9,398.9 510.6,398.7" stroke="#fb0f0c"/>
<polyline points="510.6,398.7 507.5,398.2 505.6,398.3 504.0,399.2 502.4,400.3 498.0,403.0 495.0,404.9 492.8,406.4 490.2,408.3 487.5,410.1 481.8,413.8 475.8,417.2 473.6,418.5 468.6,421.5" stroke="#fb0f0c"/>
<polyline points="468.6,421.5 466.7,422.6 464.4,424.0" stroke="#fb0f0c"/>
<polyline points="464.4,424.0 461.9,425.4 460.6,426.2 458.7,427.3 458.1,427.6" stroke="#fb0f0c"/>
<polyline points="458.1,427.6 453.9,428.6 448.5,430.0 445.9,430.3" stroke="#fb0f0c"/>
<polyline points="445.9,430.3 443.3,430.8 441.3,431.2" stroke="#fb0f0c"/>
<polyline points="441.3,431.2 439.9,431.2 439.3,431.4" stroke="#fb0f0c"/>
<polyline points="439.3,431.4 436.5,432.3 435.1,432.7 431.6,433.5 429.4,434.2 427.7,434.9 424.1,436.4 421.4,437.5 419.2,438.3 418.8,438.4" stroke="#fb0f0c"/>
<polyline points="418.8,438.4 418.3,438.5" stroke="#fb0f0c"/>
<polyline points="418.3,438.5 416.8,438.3 415.8,438.4" stroke="#fb0f0c"/>
<polyline points="415.8,438.4 414.1,438.9 412.4,438.8 409.7,438.0 408.1,437.5 406.4,436.8 404.7,436.3" stroke="#fb0f0c"/>
<polyline points="404.7,436.3 403.3,435.6 402.3,434.8" stroke="#fb0f0c"/>
<polyline points="402.3,434.8 401.7,433.4 402.2,431.8 403.9,430.3 405.0,429.0 405.9,426.9 406.5,425.4 407.2,421.9 407.5,419.1 407.6,417.6 407.6,415.1 407.8,413.5 409.1,410.8 409.7,409.4 410.3,407.2 410.9,404.2 411.3,402.0 411.9,400.1 413.1,395.9 413.9,392.5 414.4,390.3 414.6,388.8 414.5,387.3 414.7,378.9 414.5,376.1 414.5,374.5 415.0,356.7 414.9,355.3" stroke="#fb0f0c"/>
<polyline points="471.4,379.7 468.9,379.6 468.4,379.6" stroke="#ed7b24"/>
<polyline points="471.4,379.5 468.4,379.3" stroke="#ed7b24"/>
<polyline points="424.2,376.6 425.6,376.8 427.0,376.9 424.2,376.6" stroke="#ed7b24"/>
<polyline points="393.7,354.1 394.7,351.3 394.1,352.8 393.7,354.1" stroke="#ed7b24"/>
<polyline points="388.5,267.6 388.5,267.6" stroke="#ed7b24"/>
<polyline points="788.2,436.8 791.0,438.4 792.8,439.1 794.6,439.3 797.0,439.2 804.8,436.9 806.3,436.3 807.8,435.3 809.0,434.1 809.9,432.4 810.5,430.9 810.7,429.1 810.3,426.8 808.3,420.2 807.3,416.3 806.7,414.9 805.7,413.4 804.3,412.0 801.9,410.9 799.5,410.7 797.1,411.1 794.5,412.9 793.2,414.5 790.7,416.1 789.2,416.5 786.3,417.0 782.0,417.0 778.2,417.0 773.6,416.5 772.1,416.4 764.6,414.7 758.7,415.1 755.3,414.6 752.7,414.1 740.8,413.6 733.2,416.4 727.7,418.8 723.8,420.0 722.3,421.3 718.3,422.4 712.0,422.6 697.8,417.7 678.0,412.1 676.2,411.5 656.4,404.4 641.9,390.1 636.2,385.4 634.9,384.5 633.3,384.0 631.1,384.6 629.8,385.3 628.6,386.6 627.7,388.2 626.9,393.6 625.4,399.5 624.0,403.3 622.8,404.3 618.7,406.9 615.7,407.6 609.0,408.3 593.5,408.2 577.1,403.0 575.6,403.1 573.9,403.9 571.8,405.0 567.6,407.1 566.0,407.9 563.6,407.8 561.8,407.4 560.3,406.8 559.0,406.1 555.0,400.1 552.2,395.5 547.1,387.1 545.6,384.7 544.4,382.7 539.4,374.4 537.6,372.6 536.0,371.7 534.3,371.3 532.3,371.4 530.7,372.0 527.9,373.7 524.9,375.7 523.3,376.5 519.4,377.6 516.9,378.1 514.5,378.1 513.1,377.9 511.7,377.7 509.4,377.2 507.6,376.4 505.0,375.0 499.4,372.1 497.0,371.2 495.0,371.0 492.7,371.5 485.8,373.8 482.2,374.9" stroke="#ed7b24"/>
<polyline points="472.0,379.7 473.7,379.5 475.1,378.8 476.6,377.6 477.8,376.6 479.2,375.9 480.7,375.4 482.2,374.9" stroke="#ed7b24"/>
<polyline points="462.3,379.0 463.9,379.1 465.6,379.2 467.0,379.3 469.9,379.6 472.0,379.7" stroke="#ed7b24"/>
<polyline points="390.8,358.7 389.2,359.6 386.3,360.6 384.8,361.2 383.5,362.1 382.4,363.3 381.6,364.7 381.2,366.2 381.0,368.1 381.4,369.7 382.0,371.2 383.1,372.6 384.2,373.6 385.8,374.4 387.5,374.7 389.5,374.7 391.2,374.7 393.2,374.8 395.3,374.9 399.1,375.2 405.5,375.5 411.3,375.8 414.0,375.9 424.2,376.6 425.6,376.7 427.4,376.8 429.0,376.9 430.5,376.9 431.9,377.0 434.8,377.2 443.3,378.0 459.8,379.0 461.3,379.1 462.3,379.0" stroke="#ed7b24"/>
<polyline points="395.9,347.8 395.1,350.1 394.3,352.7 393.4,355.3 392.8,356.6 391.7,358.0 390.8,358.7" stroke="#ed7b24"/>
<polyline points="368.3,211.4 367.3,212.4 365.8,214.0 364.7,215.8 364.4,218.0 365.0,221.0 366.9,226.4 373.2,241.8 374.0,243.9 375.0,246.7 376.4,248.6 378.9,250.0 380.0,250.9 380.9,252.0 383.6,256.4 386.1,260.6 387.5,263.4 388.3,266.2 388.7,267.7 389.8,272.6 389.9,276.3 389.7,277.9 388.5,280.8 387.4,282.1 386.0,283.7 384.9,284.7 383.7,285.8 382.7,287.1 381.9,288.7 381.3,290.8 380.9,292.3 380.7,293.8 381.3,296.3 382.4,297.6 383.5,298.6 385.0,299.4 387.6,300.2 391.6,301.0 394.1,301.8 395.5,302.4 397.0,303.8 398.0,306.9 399.3,316.4 399.2,318.5 399.0,320.2 397.2,324.0 396.2,325.9 395.3,328.2 395.1,337.6 396.1,341.3 396.5,342.8 396.6,344.2 396.4,345.7 395.9,347.8" stroke="#ed7b24"/>
<polyline points="380.8,428.6 382.5,429.1 385.5,429.0 387.5,429.0 389.1,429.1 390.9,429.9 392.2,430.8 395.0,432.7 397.1,434.1 398.3,434.9 399.9,435.7 401.1,436.0" stroke="#e6194b"/>
<polyline points="175.9,645.4 178.4,647.0 176.0,645.3 175.9,645.4" stroke="#a49a00"/>
<polyline points="157.7,633.5 157.7,633.5" stroke="#a49a00"/>
<polyline points="177.4,646.2 176.0,645.3 173.6,643.9 170.1,642.4 167.9,641.4 165.9,640.3 164.0,638.7 162.7,637.5 161.3,636.3" stroke="#a49a00"/>
<polyline points="161.3,636.3 158.7,634.2 155.9,632.1" stroke="#a49a00"/>
<polyline points="155.9,632.1 154.3,630.9 152.1,629.2 149.6,627.5 148.1,626.5 146.8,625.9 144.6,625.4 142.2,625.6 140.1,626.5 138.0,628.4 135.8,630.7 134.5,632.0 132.8,633.7 129.2,637.6 125.1,641.8 122.3,644.6 120.6,646.1 118.9,647.0 116.4,647.4 112.1,647.0 109.8,646.6 107.3,645.6 105.8,644.7 103.6,643.6 101.6,643.2 99.3,643.4 98.2,643.7" stroke="#a49a00"/>
<polyline points="95.9,644.5 87.9,647.0 85.5,647.8 83.9,648.4 81.5,649.8 76.3,653.5 74.9,654.6 73.5,655.3 72.1,655.8 70.7,656.2 69.3,656.5 66.3,657.0 63.7,657.5 61.2,657.9 59.1,657.8 56.8,657.8 55.4,657.9 53.6,658.3 52.2,658.7 50.5,659.4 49.0,660.2 47.8,661.0 46.5,662.4 45.5,664.3 45.1,665.7 44.9,668.0 45.0,671.4 45.0,673.7 45.1,676.1 45.1,677.7 45.6,680.1 47.1,682.9 48.7,684.5 50.4,685.2 52.9,685.7 55.2,685.7 58.0,686.0 59.5,686.6 61.3,687.7 62.8,689.3 64.0,692.0 64.6,693.8 65.8,698.0 66.4,700.2 66.5,701.6 66.6,703.2 66.3,705.4 65.9,706.9 65.2,708.5 63.3,711.6 62.3,712.8 60.2,715.6 58.8,717.3 56.6,719.1 54.5,720.0 52.4,720.5 50.5,720.8 49.1,721.1 47.0,721.9 45.0,723.5 44.0,724.6 42.4,726.8 41.3,728.4 40.2,729.8 39.4,731.0 38.3,732.8 37.8,735.1 38.0,737.5 38.8,739.6 40.1,741.4 41.7,742.6 49.8,747.1 51.7,748.1 53.4,748.9 55.5,749.6 57.6,750.0 59.0,750.2 62.4,750.5 66.4,751.0 68.8,751.5 70.4,752.1 72.7,753.0 74.6,754.3 76.1,755.5 77.2,756.5 78.3,757.8 79.1,759.1 80.1,760.6 81.1,762.3 83.9,766.9 85.8,770.0 90.4,777.5 91.3,778.9 92.4,780.2 93.4,781.2 94.9,782.5 96.4,783.6 98.4,784.7 101.3,785.7 103.1,786.2 105.1,786.4 108.3,786.3 118.0,786.3 122.9,786.2 125.7,786.2 127.1,786.3 129.1,786.7 130.7,787.5 133.8,790.0 135.1,791.0 137.0,792.3 138.9,793.3 140.8,794.0 142.5,794.6 144.0,795.2 145.6,796.1 147.2,797.4 148.7,799.0 153.3,803.6 154.9,805.3 156.1,806.8 156.8,808.1 158.2,811.7 159.3,814.0 160.9,815.7 162.6,816.7 163.8,817.1" stroke="#a49a00"/>
<polyline points="210.1,828.8 212.0,829.6 214.1,829.9 216.2,829.7 218.3,828.8 220.1,827.4 221.3,825.6 222.4,823.3 223.2,821.5 224.3,819.9 225.6,818.5 226.7,817.6 228.7,816.5 232.0,815.3 235.0,814.4" stroke="#a49a00"/>
<polyline points="235.0,814.4 237.8,813.5 240.8,811.9 243.8,810.2 245.4,809.5 247.0,809.0 257.5,807.1 267.4,805.4 269.2,805.3 270.6,805.3 272.2,805.5 274.8,806.3 276.8,807.3 283.6,810.5 285.7,811.4 287.5,811.8 290.2,812.0 291.7,811.8 294.7,811.0 299.1,809.6 299.9,809.3" stroke="#a49a00"/>
<polyline points="299.9,809.3 304.0,808.0 305.6,807.5 307.2,807.2 308.7,807.0 311.6,806.8 313.4,806.4 315.3,805.6 316.8,804.7 319.1,802.4 320.0,801.3 321.2,799.4 322.1,798.0 326.1,791.5 327.1,790.1 329.4,787.9 330.9,787.0 333.3,786.1 335.0,785.7 336.4,785.4 337.9,784.8 340.0,783.2 341.4,780.9 342.1,778.6" stroke="#a49a00"/>
<polyline points="342.1,778.6 342.3,776.4 342.6,773.5 342.3,771.6 341.7,768.0 341.2,765.1 340.5,763.0 338.9,759.4 338.4,758.0 338.1,756.1 338.6,753.1 339.5,751.8 341.1,749.8 342.5,748.7 344.2,748.1 348.1,747.8 351.3,747.7 353.9,748.0 357.9,749.4 359.9,750.2 361.3,750.6 363.8,750.9 366.3,750.6 368.7,749.4 370.4,748.0 371.3,746.8 373.4,744.0 374.9,741.9 378.5,737.1 379.5,735.7 381.2,734.0 383.4,733.0 385.7,732.6 387.7,732.9 390.6,734.2 392.1,735.0 394.4,735.5 396.7,735.4 398.8,734.6 400.8,733.0 402.1,730.9 402.6,728.3 402.4,726.4 401.4,723.6 400.5,721.1" stroke="#a49a00"/>
<polyline points="400.5,721.1 399.0,718.7 398.0,717.6 395.6,715.8 389.7,711.6 383.6,707.1 381.8,705.7 380.1,704.5" stroke="#a49a00"/>
<polyline points="380.1,704.5 378.0,703.5 366.5,699.2 363.7,697.9 362.4,697.2 360.8,695.7 359.5,694.0 358.3,692.2 356.2,689.3" stroke="#a49a00"/>
<polyline points="356.2,689.3 355.3,688.1 353.4,685.5 352.4,683.4 351.8,681.2 351.4,678.8 351.1,677.4 350.4,675.5 349.0,673.5 346.9,671.7 344.5,670.5 342.6,670.1 339.9,670.1 337.5,670.7 334.8,671.5 332.9,672.2" stroke="#a49a00"/>
<polyline points="332.9,672.2 328.7,673.3 326.5,674.0 324.8,674.4 318.2,675.9 315.5,676.5 313.9,676.7 311.1,676.8 309.2,676.8 304.4,676.8" stroke="#a49a00"/>
<polyline points="304.4,676.8 302.4,676.7 300.8,676.7 298.9,677.1 297.1,678.1 295.9,679.2 295.0,680.6 294.3,682.4 294.2,684.3 294.5,686.3 295.0,689.0 295.2,690.4 295.4,691.8 295.5,693.5 295.3,695.1 294.9,696.5 294.3,697.9 293.4,699.4 290.9,702.9" stroke="#a49a00"/>
<polyline points="290.9,702.9 286.7,708.1 285.8,709.3 284.8,710.6 283.0,712.2 281.5,713.1 278.9,713.8 274.6,713.9 271.5,713.9 268.8,713.7 266.4,712.9 264.4,711.6 262.8,709.7 261.7,707.4 261.2,705.0 261.1,703.5 261.6,701.4 262.3,699.6 263.9,696.8" stroke="#a49a00"/>
<polyline points="263.9,696.8 264.7,695.6 266.4,692.5" stroke="#a49a00"/>
<polyline points="266.4,692.5 267.4,690.5 267.8,689.0 267.7,686.6 266.9,684.4 265.0,682.0 258.9,675.0 257.2,673.1 254.9,670.7 252.2,668.0" stroke="#a49a00"/>
<polyline points="252.2,668.0 246.8,662.5 243.7,659.3 242.4,658.0 241.1,657.1 238.6,655.9 237.1,655.5 235.5,655.2 234.1,655.3 232.6,655.4 230.1,656.1 223.0,658.2 216.5,660.0 215.0,660.3 213.5,660.5 210.5,660.4 208.7,660.0 207.2,659.6 205.4,658.8 203.0,657.7 201.1,656.9 196.1,655.2 192.7,654.0 190.3,653.2 186.7,651.8 185.2,651.2 183.9,650.5 182.2,649.4 178.5,646.9 177.4,646.2" stroke="#a49a00"/>
<polyline points="387.6,530.3 390.6,530.4 388.0,530.4 387.6,530.3" stroke="#939393"/>
<polyline points="468.2,500.2 470.3,499.5 468.2,500.3 468.2,500.2" stroke="#939393"/>
<polyline points="479.8,483.2 481.6,480.4 479.8,483.2" stroke="#939393"/>
<polyline points="489.6,463.7 489.5,466.6 489.6,464.4 489.6,463.7" stroke="#939393"/>
<polyline points="482.7,391.3 483.6,392.7 484.3,393.7" stroke="#939393"/>
<polyline points="470.9,377.4 472.6,379.3 472.9,379.7" stroke="#939393"/>
<polyline points="434.4,353.9 437.7,354.1 434.4,353.9" stroke="#939393"/>
<polyline points="396.2,354.0 398.4,353.2 396.2,354.0" stroke="#939393"/>
<polyline points="325.8,489.7 326.5,493.5 328.1,502.0 332.8,507.1 333.8,508.2" stroke="#939393"/>
<polyline points="333.8,508.2 342.7,513.5 354.1,520.5 356.0,521.4 373.0,525.5 379.4,527.6 381.1,528.4 382.2,529.0" stroke="#939393"/>
<polyline points="382.2,529.0 384.0,529.8 385.5,530.3 387.0,530.5 389.2,530.5 390.7,530.5 392.3,530.6 397.8,530.7 399.3,530.3 411.6,522.3 417.4,518.2 421.8,516.5 427.8,515.3 433.0,513.8 434.8,513.3 437.2,512.5 445.0,509.0 447.3,508.1 450.2,506.9 453.0,505.9 457.1,504.4 462.2,502.5 467.6,500.5 469.1,500.0 470.6,499.6 472.3,498.7 473.5,497.4 474.1,495.6 474.5,492.6 475.0,490.6 476.0,488.8 479.5,483.8 481.6,480.7 485.1,475.7 488.0,471.5 489.0,469.8 489.4,468.3 489.6,466.7 489.7,463.6 489.9,461.8 490.0,458.8 490.9,446.5 490.9,444.9 491.1,442.0 491.3,440.5 492.3,423.6 493.1,411.2 493.2,409.0 493.3,407.0 493.3,405.1 492.8,403.2 491.8,401.5 490.6,400.6 489.2,399.9 487.9,399.2 487.1,398.2" stroke="#939393"/>
<polyline points="487.1,398.2 485.7,395.9 484.5,394.0 483.6,392.6 482.7,391.2 481.6,389.6 480.4,388.1 479.0,386.3 477.6,384.6 476.6,383.5 475.6,382.4 474.3,381.1" stroke="#939393"/>
<polyline points="474.3,381.1 473.1,379.7 472.0,378.5 470.8,377.2 469.8,376.1 468.7,374.8 467.6,373.5 466.7,372.1" stroke="#939393"/>
<polyline points="466.7,372.1 462.1,365.1 457.9,359.8 455.8,357.2 454.9,356.1 453.6,355.0 452.2,354.5 450.7,354.5 448.8,354.8 445.5,354.7" stroke="#939393"/>
<polyline points="445.5,354.7 443.5,354.6 441.6,354.5 440.0,354.4 437.6,354.1 436.1,353.9 434.4,353.7" stroke="#939393"/>
<polyline points="434.4,353.7 415.2,352.3 404.4,351.6 403.0,351.7" stroke="#939393"/>
<polyline points="403.0,351.7 401.5,352.0 400.1,352.4 397.5,353.5 394.5,354.7 392.9,355.2 391.3,355.2 389.6,354.7 388.7,354.2" stroke="#939393"/>
<polyline points="388.7,354.2 386.9,353.3 385.0,353.3 381.5,353.7 377.2,354.3 372.0,355.0 370.1,355.6 368.8,356.6 367.9,357.8 366.7,360.7 365.6,363.4 365.4,365.2 365.6,366.8 366.2,369.5 366.9,371.3 367.8,373.0 370.4,376.0 372.1,378.8 373.0,379.9 378.6,384.0 380.1,385.2 381.5,387.3 383.4,390.7 385.0,393.7" stroke="#939393"/>
<polyline points="385.0,393.7 385.8,395.2 388.1,399.2 389.4,401.7" stroke="#939393"/>
<polyline points="389.4,401.7 394.1,411.7 394.9,414.2 395.1,416.7 394.5,418.9 393.4,420.4 392.0,421.2 388.9,421.8 387.0,422.4 385.7,423.3 384.5,424.4" stroke="#939393"/>
<polyline points="384.5,424.4 382.3,426.4 379.5,428.9" stroke="#939393"/>
<polyline points="379.5,428.9 378.7,430.1 377.8,438.3 377.4,440.3 376.5,442.4 375.5,444.0 374.1,445.2 371.9,446.5 370.3,447.0 368.7,447.2 364.8,447.8 361.9,448.3 360.1,448.8 340.1,458.6 334.5,461.4 331.5,462.4 328.2,463.6 326.4,464.4 325.2,465.7 324.7,467.5 324.6,469.7 324.2,472.9 323.8,475.4 323.8,477.1 323.9,478.7 325.3,486.7 325.6,488.7 325.8,489.7" stroke="#939393"/>
<polyline points="381.7,532.4 383.9,530.6 381.7,532.4" stroke="#006400"/>
<polyline points="253.1,608.5 258.7,611.8 260.7,612.6 263.6,613.6 265.3,613.8 272.8,613.3 275.8,612.7 279.6,611.7 288.6,608.5 290.1,607.9 291.7,607.3 292.9,606.5 293.8,605.2 295.0,600.3 295.8,597.9 297.7,594.3 299.4,589.7 300.6,587.8 302.6,585.1 304.2,583.1 305.2,581.4 306.0,579.7 306.5,578.0 306.7,575.9 306.8,573.8 307.2,572.4 308.0,571.0 309.4,569.0" stroke="#006400"/>
<polyline points="309.4,569.0 310.2,567.1 310.9,565.0 311.6,563.7 312.9,562.9 317.7,561.8 319.9,561.1 321.4,561.3 325.3,564.2 327.6,565.7 329.5,566.0 331.2,565.7 332.7,565.2 334.4,564.6 336.3,563.8 338.3,563.4 339.7,563.3 341.3,563.2 342.8,562.6 344.2,561.1 348.6,556.5 354.5,550.5 362.3,542.6 363.9,541.0 365.8,539.2 367.3,538.3 368.9,537.7 370.8,537.3 374.5,536.7 376.3,536.1 380.3,533.8" stroke="#006400"/>
<polyline points="380.3,533.8 381.8,532.4 383.3,531.2" stroke="#006400"/>
<polyline points="449.4,294.3 451.0,291.9" stroke="#015396"/>
<polyline points="443.2,355.2 443.1,358.5 443.2,355.2" stroke="#015396"/>
<polyline points="443.4,378.0 443.5,381.3 443.4,378.0" stroke="#015396"/>
<polyline points="178.4,644.9 176.5,647.2 177.9,646.7 178.5,645.0 178.4,644.9" stroke="#015396"/>
<polyline points="436.0,195.1 435.7,197.0 435.5,198.9 435.3,200.7 435.4,202.1 439.3,213.8 453.4,247.5 455.3,256.1 455.8,258.0 456.8,259.7 460.6,265.6 462.2,268.0 462.9,269.4 462.9,272.1 462.2,274.1 460.8,277.9 459.9,280.6 453.3,288.7 450.1,293.0 448.6,295.2 447.3,297.1 446.7,298.5 446.3,300.3 446.4,301.9 446.6,306.4 446.0,315.8" stroke="#015396"/>
<polyline points="446.0,315.8 444.5,336.5 444.0,343.5 443.6,349.2 443.4,352.0 443.2,354.4 443.0,357.0" stroke="#015396"/>
<polyline points="434.4,402.2 435.6,400.8 437.3,398.8 438.5,397.5 441.0,395.1 442.1,393.9 442.9,392.0 443.2,390.5 443.3,382.6 443.3,378.9 443.3,376.9 442.3,372.9 441.7,371.0 441.5,369.5 441.7,367.9 442.2,366.3 442.5,364.7 442.6,363.1 442.9,359.2 443.0,357.0" stroke="#015396"/>
<polyline points="383.8,425.4 384.9,424.4 386.6,423.4 388.4,422.8 389.9,422.5 393.3,422.4 394.8,422.3 396.9,421.9 400.5,419.6 402.5,418.1 403.8,417.3 405.6,416.6 407.0,416.3 409.5,416.2 411.2,415.9 413.1,415.4 415.1,414.7 416.7,413.9 422.9,411.0 427.1,409.0 429.0,408.0 430.7,406.8 432.4,405.0 434.4,402.2" stroke="#015396"/>
<polyline points="380.2,428.6 381.9,427.1 383.8,425.4" stroke="#015396"/>
<polyline points="346.9,440.1 357.6,438.8 359.3,438.4 361.0,437.7 364.3,435.9 366.2,435.6 368.6,435.9 372.8,437.2 374.2,437.4 376.5,437.0 378.3,435.5 379.1,433.6 379.2,431.2 379.8,429.4 380.2,428.6" stroke="#015396"/>
<polyline points="309.1,463.7 311.4,462.2 313.3,460.9 315.3,459.6 317.2,458.3 318.7,457.3 320.0,456.3 321.1,455.2 322.1,453.9 322.9,452.5 324.7,447.9 325.4,446.4 326.2,445.1 327.2,443.8 328.3,442.9 329.9,441.8 331.6,441.1 333.0,440.8 339.2,440.8 341.1,440.9 342.9,440.8 346.9,440.1" stroke="#015396"/>
<polyline points="308.7,464.0 309.1,463.7" stroke="#015396"/>
<polyline points="292.2,475.5 293.7,474.1 295.1,473.1 300.2,469.7 303.1,467.8 305.4,466.2 307.0,465.1 308.7,464.0" stroke="#015396"/>
<polyline points="177.4,646.0 187.7,633.1 190.5,629.6 194.1,625.0 196.2,622.2 201.3,615.7 212.0,585.2 219.4,554.2 239.2,535.0 259.1,497.2 273.4,488.4 284.1,482.0 286.5,480.6 287.8,479.8 290.0,477.7 291.6,476.2 292.2,475.5" stroke="#015396"/>
<polyline points="178.2,644.7 176.8,645.4 176.3,647.0 178.3,644.8 178.2,644.7" stroke="#015396"/>
<polyline points="443.1,378.0 443.2,381.3 443.1,378.0" stroke="#015396"/>
<polyline points="442.9,355.2 442.8,358.5 442.9,355.2" stroke="#015396"/>
<polyline points="449.1,294.2 450.8,291.7" stroke="#015396"/>
<polyline points="177.4,646.0 187.6,632.9 189.0,631.1 201.1,615.4 211.8,584.9 219.1,554.1 238.9,534.7 258.9,497.1 284.0,481.9 285.7,480.8 287.2,479.5 289.8,477.3 291.3,475.8 292.0,475.2" stroke="#015396"/>
<polyline points="292.0,475.2 293.2,474.4 294.4,473.5 295.9,472.5 300.1,469.6 303.0,467.7 305.4,466.1 307.0,465.1 308.7,463.9" stroke="#015396"/>
<polyline points="308.7,463.9 309.1,463.6" stroke="#015396"/>
<polyline points="309.1,463.6 310.4,462.7 312.4,461.4 314.3,460.1 316.2,458.9 317.9,457.7 319.3,456.8 320.5,455.7 321.6,454.5 322.5,453.2 323.1,451.7 324.7,447.9 325.3,446.3 326.1,445.0 327.1,443.8 328.2,442.8 329.9,441.7 331.5,441.1 332.9,440.7 339.2,440.7 341.1,440.8 342.9,440.7 346.8,440.0" stroke="#015396"/>
<polyline points="346.8,440.0 357.5,438.7 359.3,438.3 361.0,437.6 364.3,435.8 365.9,434.5 368.3,432.3 369.9,431.1 371.3,430.3 373.0,429.7 374.6,429.5 376.2,429.4 378.6,428.8 379.4,428.4" stroke="#015396"/>
<polyline points="379.4,428.4 381.5,426.6 383.4,424.9" stroke="#015396"/>
<polyline points="383.4,424.9 385.0,423.4 386.7,422.6 389.8,422.4 393.3,422.3 394.8,422.3 396.9,421.8 400.4,419.5 402.5,418.0 403.8,417.2 405.5,416.5 407.0,416.2 409.5,416.1 411.2,415.8 413.1,415.3 415.0,414.6 416.7,413.9 422.9,410.9 428.3,408.3 429.8,407.4 431.4,405.8 434.3,402.2" stroke="#015396"/>
<polyline points="434.3,402.2 435.5,400.7 437.2,398.8 438.4,397.5 440.9,395.1 442.0,393.9 442.9,391.9 443.1,390.5 443.2,382.6 443.2,378.9 443.2,376.9 442.2,372.9 441.6,371.0 441.5,369.5 441.6,367.9 442.1,366.3 442.4,364.7 442.5,363.0 442.8,359.2 443.0,357.0" stroke="#015396"/>
<polyline points="443.0,357.0 443.1,354.4 443.3,352.0 443.3,348.8 443.8,343.1 444.3,336.2 445.8,315.5" stroke="#015396"/>
<polyline points="445.8,315.5 446.4,306.1 446.2,301.6 446.1,300.0 446.5,298.2 447.3,296.9 448.6,295.1 450.0,293.0 452.5,289.5 459.1,281.4 460.6,277.6 462.0,273.8 462.6,271.8 462.9,270.4 462.0,268.0 460.4,265.6 456.6,259.8 455.7,258.1 455.1,256.1 453.5,248.8 439.1,213.9 435.3,202.1 435.1,200.7 435.3,198.9 435.6,197.0 435.9,195.1" stroke="#015396"/>
</g></svg>